<?xml version="1.0" encoding="UTF-8"?><svg xmlns="http://www.w3.org/2000/svg" xmlns:xlink="http://www.w3.org/1999/xlink" fill-opacity="1" color-rendering="auto" color-interpolation="auto" stroke="black" text-rendering="auto" stroke-linecap="square" width="1106" stroke-miterlimit="10" stroke-opacity="1" shape-rendering="auto" fill="black" stroke-dasharray="none" font-weight="normal" stroke-width="1" height="773" font-family="'Dialog'" font-style="normal" stroke-linejoin="miter" font-size="12" stroke-dashoffset="0" image-rendering="auto">
  <!--Generated by ySVG 2.5-->
  <defs id="genericDefs"/>
  <g>
    <defs id="defs1">
      <linearGradient x1="-1983.7399" gradientUnits="userSpaceOnUse" x2="-1842.7047" y1="-1059.6357" y2="-1019.6357" id="linearGradient1" spreadMethod="reflect">
        <stop stop-opacity="1" stop-color="rgb(232,238,247)" offset="0%"/>
        <stop stop-opacity="1" stop-color="rgb(183,201,227)" offset="100%"/>
      </linearGradient>
      <linearGradient x1="-1762.5204" gradientUnits="userSpaceOnUse" x2="-1604.2844" y1="-1059.6357" y2="-1019.6357" id="linearGradient2" spreadMethod="reflect">
        <stop stop-opacity="1" stop-color="rgb(204,255,204)" offset="0%"/>
        <stop stop-opacity="1" stop-color="rgb(51,153,102)" offset="100%"/>
      </linearGradient>
      <clipPath clipPathUnits="userSpaceOnUse" id="clipPath1">
        <path d="M0 0 L1106 0 L1106 773 L0 773 L0 0 Z"/>
      </clipPath>
      <clipPath clipPathUnits="userSpaceOnUse" id="clipPath2">
        <path d="M-2147 -1331 L-1428.6276 -1331 L-1428.6276 -828.9188 L-2147 -828.9188 L-2147 -1331 Z"/>
      </clipPath>
    </defs>
    <g text-rendering="geometricPrecision" stroke-miterlimit="1.45" shape-rendering="geometricPrecision" font-family="sans-serif" transform="matrix(1.5396,0,0,1.5396,3305.5029,2049.1962)" stroke-linecap="butt">
      <text x="-2063.7915" xml:space="preserve" y="-1150.7115" clip-path="url(#clipPath2)" stroke="none">Bulk solution coupled model</text>
    </g>
    <g text-rendering="geometricPrecision" stroke-miterlimit="1.45" shape-rendering="geometricPrecision" transform="matrix(1.5396,0,0,1.5396,3305.5029,2049.1962)" stroke-linecap="butt">
      <rect fill="none" x="-2072.157" width="576.0082" height="214.6796" y="-1146.9756" clip-path="url(#clipPath2)"/>
    </g>
    <g fill="url(#linearGradient1)" text-rendering="geometricPrecision" shape-rendering="geometricPrecision" transform="matrix(1.5396,0,0,1.5396,3305.5029,2049.1962)" stroke="url(#linearGradient1)">
      <path d="M-1983.7399 -1059.6357 L-1842.7047 -1059.6357 L-1842.7047 -1019.6357 L-1983.7399 -1019.6357 Z" clip-path="url(#clipPath2)" stroke="none"/>
    </g>
    <g text-rendering="geometricPrecision" stroke-miterlimit="1.45" shape-rendering="geometricPrecision" transform="matrix(1.5396,0,0,1.5396,3305.5029,2049.1962)" stroke-linecap="butt">
      <path fill="none" d="M-1983.7399 -1059.6357 L-1842.7047 -1059.6357 L-1842.7047 -1019.6357 L-1983.7399 -1019.6357 Z" clip-path="url(#clipPath2)"/>
      <text x="-1972.1412" xml:space="preserve" y="-1042.4658" font-family="sans-serif" clip-path="url(#clipPath2)" stroke="none">Bulk solution Space</text>
      <text x="-1958.7145" xml:space="preserve" y="-1028.4971" font-family="sans-serif" clip-path="url(#clipPath2)" stroke="none">(compartment)</text>
    </g>
    <g fill="url(#linearGradient2)" text-rendering="geometricPrecision" shape-rendering="geometricPrecision" transform="matrix(1.5396,0,0,1.5396,3305.5029,2049.1962)" stroke="url(#linearGradient2)">
      <path d="M-1762.5204 -1059.6357 L-1604.2844 -1059.6357 L-1604.2844 -1019.6357 L-1762.5204 -1019.6357 Z" clip-path="url(#clipPath2)" stroke="none"/>
    </g>
    <g text-rendering="geometricPrecision" stroke-miterlimit="1.45" shape-rendering="geometricPrecision" transform="matrix(1.5396,0,0,1.5396,3305.5029,2049.1962)" stroke-linecap="butt">
      <path fill="none" d="M-1762.5204 -1059.6357 L-1604.2844 -1059.6357 L-1604.2844 -1019.6357 L-1762.5204 -1019.6357 Z" clip-path="url(#clipPath2)"/>
      <text x="-1739.5704" xml:space="preserve" y="-1042.4658" font-family="sans-serif" clip-path="url(#clipPath2)" stroke="none">Bulk solution Inner</text>
      <text x="-1723.7882" xml:space="preserve" y="-1028.4971" font-family="sans-serif" clip-path="url(#clipPath2)" stroke="none">(reaction set)</text>
    </g>
    <g text-rendering="geometricPrecision" stroke-miterlimit="1.45" shape-rendering="geometricPrecision" transform="matrix(1.5396,0,0,1.5396,3305.5029,2049.1962)" stroke-linecap="butt">
      <path fill="none" d="M-1842.722 -1039.6357 L-1770.5566 -1039.6357" clip-path="url(#clipPath2)"/>
      <path d="M-1762.5566 -1039.6357 L-1774.5566 -1044.6357 L-1771.5566 -1039.6357 L-1774.5566 -1034.6357 Z" clip-path="url(#clipPath2)" stroke="none"/>
      <path fill="none" d="M-1604.2734 -1039.6357 L-1584.2844 -1039.6357 L-1584.2844 -999.6357 L-1913.2223 -999.6357 L-1913.2223 -1011.5967" clip-path="url(#clipPath2)"/>
      <path d="M-1913.2223 -1019.5967 L-1918.2223 -1007.5967 L-1913.2223 -1010.5967 L-1908.2223 -1007.5967 Z" clip-path="url(#clipPath2)" stroke="none"/>
      <path fill="none" d="M-2072.1833 -1039.6357 L-1991.7501 -1039.6357" clip-path="url(#clipPath2)"/>
      <path d="M-1983.7501 -1039.6357 L-1995.7501 -1044.6357 L-1992.7501 -1039.6357 L-1995.7501 -1034.6357 Z" clip-path="url(#clipPath2)" stroke="none"/>
      <path fill="none" d="M-1842.7104 -1039.6357 L-1795.4822 -1039.6357 L-1795.4822 -1079.6357 L-1567.1475 -1079.6357 L-1567.1475 -1039.6357 L-1504.1725 -1039.6357" clip-path="url(#clipPath2)"/>
      <path d="M-1496.1725 -1039.6357 L-1508.1725 -1044.6357 L-1505.1725 -1039.6357 L-1508.1725 -1034.6357 Z" clip-path="url(#clipPath2)" stroke="none"/>
    </g>
  </g>
</svg>
