<?xml version="1.0" encoding="UTF-8"?><svg xmlns="http://www.w3.org/2000/svg" xmlns:xlink="http://www.w3.org/1999/xlink" fill-opacity="1" color-rendering="auto" color-interpolation="auto" stroke="black" text-rendering="auto" stroke-linecap="square" width="1106" stroke-miterlimit="10" stroke-opacity="1" shape-rendering="auto" fill="black" stroke-dasharray="none" font-weight="normal" stroke-width="1" height="773" font-family="'Dialog'" font-style="normal" stroke-linejoin="miter" font-size="12" stroke-dashoffset="0" image-rendering="auto">
  <!--Generated by ySVG 2.5-->
  <model_ports id="genericDefs"/>
  <g>
    <model_ports id="defs1">
      <linearGradient x1="-1100.2585" gradientUnits="userSpaceOnUse" x2="-959.2234" y1="-1607.8501" y2="-1567.8501" id="linearGradient1" spreadMethod="reflect">
        <stop stop-opacity="1" stop-color="rgb(204,255,204)" offset="0%"/>
        <stop stop-opacity="1" stop-color="rgb(51,153,102)" offset="100%"/>
      </linearGradient>
      <linearGradient x1="-919.2234" gradientUnits="userSpaceOnUse" x2="-778.1883" y1="-1664.5228" y2="-1624.5228" id="linearGradient2" spreadMethod="reflect">
        <stop stop-opacity="1" stop-color="rgb(204,255,204)" offset="0%"/>
        <stop stop-opacity="1" stop-color="rgb(51,153,102)" offset="100%"/>
      </linearGradient>
      <linearGradient x1="-919.2234" gradientUnits="userSpaceOnUse" x2="-778.1883" y1="-1552.5286" y2="-1512.5286" id="linearGradient3" spreadMethod="reflect">
        <stop stop-opacity="1" stop-color="rgb(204,255,204)" offset="0%"/>
        <stop stop-opacity="1" stop-color="rgb(51,153,102)" offset="100%"/>
      </linearGradient>
      <linearGradient x1="-1322.321" gradientUnits="userSpaceOnUse" x2="-1181.2859" y1="-1607.8501" y2="-1567.8501" id="linearGradient4" spreadMethod="reflect">
        <stop stop-opacity="1" stop-color="rgb(204,255,204)" offset="0%"/>
        <stop stop-opacity="1" stop-color="rgb(51,153,102)" offset="100%"/>
      </linearGradient>
      <linearGradient x1="-1533.5883" gradientUnits="userSpaceOnUse" x2="-1392.5531" y1="-1607.8501" y2="-1567.8501" id="linearGradient5" spreadMethod="reflect">
        <stop stop-opacity="1" stop-color="rgb(204,255,204)" offset="0%"/>
        <stop stop-opacity="1" stop-color="rgb(51,153,102)" offset="100%"/>
      </linearGradient>
      <linearGradient x1="-1155.2377" gradientUnits="userSpaceOnUse" x2="-1054.5197" y1="-1426.0938" y2="-1386.0938" id="linearGradient6" spreadMethod="reflect">
        <stop stop-opacity="1" stop-color="rgb(232,238,247)" offset="0%"/>
        <stop stop-opacity="1" stop-color="rgb(183,201,227)" offset="100%"/>
      </linearGradient>
      <clipPath clipPathUnits="userSpaceOnUse" id="clipPath1">
        <path d="M0 0 L1106 0 L1106 773 L0 773 L0 0 Z"/>
      </clipPath>
      <clipPath clipPathUnits="userSpaceOnUse" id="clipPath2">
        <path d="M-1587 -1856 L-689.0345 -1856 L-689.0345 -1228.3984 L-1587 -1228.3984 L-1587 -1856 Z"/>
      </clipPath>
    </model_ports>
    <g text-rendering="geometricPrecision" stroke-miterlimit="1.45" shape-rendering="geometricPrecision" font-family="sans-serif" transform="matrix(1.2317,0,0,1.2317,1954.6653,2285.9854)" stroke-linecap="butt">
      <text x="-1546.4657" xml:space="preserve" y="-1715.6324" clip-path="url(#clipPath2)" stroke="none">Cell coupled model</text>
    </g>
    <g text-rendering="geometricPrecision" stroke-miterlimit="1.45" shape-rendering="geometricPrecision" transform="matrix(1.2317,0,0,1.2317,1954.6653,2285.9854)" stroke-linecap="butt">
      <rect fill="none" x="-1557.6891" width="834.613" height="349.5905" y="-1711.8964" clip-path="url(#clipPath2)"/>
    </g>
    <g fill="url(#linearGradient1)" text-rendering="geometricPrecision" shape-rendering="geometricPrecision" transform="matrix(1.2317,0,0,1.2317,1954.6653,2285.9854)" stroke="url(#linearGradient1)">
      <path d="M-1100.2585 -1607.8501 L-959.2234 -1607.8501 L-959.2234 -1567.8501 L-1100.2585 -1567.8501 Z" clip-path="url(#clipPath2)" stroke="none"/>
    </g>
    <g text-rendering="geometricPrecision" stroke-miterlimit="1.45" shape-rendering="geometricPrecision" transform="matrix(1.2317,0,0,1.2317,1954.6653,2285.9854)" stroke-linecap="butt">
      <path fill="none" d="M-1100.2585 -1607.8501 L-959.2234 -1607.8501 L-959.2234 -1567.8501 L-1100.2585 -1567.8501 Z" clip-path="url(#clipPath2)"/>
      <text x="-1061.6277" xml:space="preserve" y="-1590.6802" font-family="sans-serif" clip-path="url(#clipPath2)" stroke="none">Cytoplasm</text>
      <text x="-1072.8425" xml:space="preserve" y="-1576.7114" font-family="sans-serif" clip-path="url(#clipPath2)" stroke="none">(bulk solution)</text>
    </g>
    <g fill="url(#linearGradient2)" text-rendering="geometricPrecision" shape-rendering="geometricPrecision" transform="matrix(1.2317,0,0,1.2317,1954.6653,2285.9854)" stroke="url(#linearGradient2)">
      <path d="M-919.2234 -1664.5228 L-778.1883 -1664.5228 L-778.1883 -1624.5228 L-919.2234 -1624.5228 Z" clip-path="url(#clipPath2)" stroke="none"/>
    </g>
    <g text-rendering="geometricPrecision" stroke-miterlimit="1.45" shape-rendering="geometricPrecision" transform="matrix(1.2317,0,0,1.2317,1954.6653,2285.9854)" stroke-linecap="butt">
      <path fill="none" d="M-919.2234 -1664.5228 L-778.1883 -1664.5228 L-778.1883 -1624.5228 L-919.2234 -1624.5228 Z" clip-path="url(#clipPath2)"/>
      <text x="-883.6248" xml:space="preserve" y="-1647.3529" font-family="sans-serif" clip-path="url(#clipPath2)" stroke="none">Organelle 1</text>
      <text x="-881.5301" xml:space="preserve" y="-1633.3842" font-family="sans-serif" clip-path="url(#clipPath2)" stroke="none">(organelle)</text>
      <text x="-851.8846" font-size="20" y="-1608.5404" clip-path="url(#clipPath2)" font-family="sans-serif" stroke="none" xml:space="preserve">.</text>
      <text x="-851.8846" font-size="20" y="-1585.2592" clip-path="url(#clipPath2)" font-family="sans-serif" stroke="none" xml:space="preserve">.</text>
      <text x="-851.8846" font-size="20" y="-1561.9779" clip-path="url(#clipPath2)" font-family="sans-serif" stroke="none" xml:space="preserve">.</text>
    </g>
    <g fill="url(#linearGradient3)" text-rendering="geometricPrecision" shape-rendering="geometricPrecision" transform="matrix(1.2317,0,0,1.2317,1954.6653,2285.9854)" stroke="url(#linearGradient3)">
      <path d="M-919.2234 -1552.5286 L-778.1883 -1552.5286 L-778.1883 -1512.5286 L-919.2234 -1512.5286 Z" clip-path="url(#clipPath2)" stroke="none"/>
    </g>
    <g text-rendering="geometricPrecision" stroke-miterlimit="1.45" shape-rendering="geometricPrecision" transform="matrix(1.2317,0,0,1.2317,1954.6653,2285.9854)" stroke-linecap="butt">
      <path fill="none" d="M-919.2234 -1552.5286 L-778.1883 -1552.5286 L-778.1883 -1512.5286 L-919.2234 -1512.5286 Z" clip-path="url(#clipPath2)"/>
      <text x="-883.6102" xml:space="preserve" y="-1535.3586" font-family="sans-serif" clip-path="url(#clipPath2)" stroke="none">Organelle n</text>
      <text x="-881.5301" xml:space="preserve" y="-1521.3899" font-family="sans-serif" clip-path="url(#clipPath2)" stroke="none">(organelle)</text>
    </g>
    <g fill="url(#linearGradient4)" text-rendering="geometricPrecision" shape-rendering="geometricPrecision" transform="matrix(1.2317,0,0,1.2317,1954.6653,2285.9854)" stroke="url(#linearGradient4)">
      <path d="M-1322.321 -1607.8501 L-1181.2859 -1607.8501 L-1181.2859 -1567.8501 L-1322.321 -1567.8501 Z" clip-path="url(#clipPath2)" stroke="none"/>
    </g>
    <g text-rendering="geometricPrecision" stroke-miterlimit="1.45" shape-rendering="geometricPrecision" transform="matrix(1.2317,0,0,1.2317,1954.6653,2285.9854)" stroke-linecap="butt">
      <path fill="none" d="M-1322.321 -1607.8501 L-1181.2859 -1607.8501 L-1181.2859 -1567.8501 L-1322.321 -1567.8501 Z" clip-path="url(#clipPath2)"/>
      <text x="-1281.3699" xml:space="preserve" y="-1583.6958" font-family="sans-serif" clip-path="url(#clipPath2)" stroke="none">Periplasm</text>
    </g>
    <g fill="url(#linearGradient5)" text-rendering="geometricPrecision" shape-rendering="geometricPrecision" transform="matrix(1.2317,0,0,1.2317,1954.6653,2285.9854)" stroke="url(#linearGradient5)">
      <path d="M-1533.5883 -1607.8501 L-1392.5531 -1607.8501 L-1392.5531 -1567.8501 L-1533.5883 -1567.8501 Z" clip-path="url(#clipPath2)" stroke="none"/>
    </g>
    <g text-rendering="geometricPrecision" stroke-miterlimit="1.45" shape-rendering="geometricPrecision" transform="matrix(1.2317,0,0,1.2317,1954.6653,2285.9854)" stroke-linecap="butt">
      <path fill="none" d="M-1533.5883 -1607.8501 L-1392.5531 -1607.8501 L-1392.5531 -1567.8501 L-1533.5883 -1567.8501 Z" clip-path="url(#clipPath2)"/>
      <text x="-1500.8461" xml:space="preserve" y="-1590.6802" font-family="sans-serif" clip-path="url(#clipPath2)" stroke="none">Extracellular</text>
      <text x="-1506.1722" xml:space="preserve" y="-1576.7114" font-family="sans-serif" clip-path="url(#clipPath2)" stroke="none">(bulk solution)</text>
    </g>
    <g fill="url(#linearGradient6)" text-rendering="geometricPrecision" shape-rendering="geometricPrecision" transform="matrix(1.2317,0,0,1.2317,1954.6653,2285.9854)" stroke="url(#linearGradient6)">
      <path d="M-1155.2377 -1426.0938 L-1054.5197 -1426.0938 L-1054.5197 -1386.0938 L-1155.2377 -1386.0938 Z" clip-path="url(#clipPath2)" stroke="none"/>
    </g>
    <g text-rendering="geometricPrecision" stroke-miterlimit="1.45" shape-rendering="geometricPrecision" transform="matrix(1.2317,0,0,1.2317,1954.6653,2285.9854)" stroke-linecap="butt">
      <path fill="none" d="M-1155.2377 -1426.0938 L-1054.5197 -1426.0938 L-1054.5197 -1386.0938 L-1155.2377 -1386.0938 Z" clip-path="url(#clipPath2)"/>
      <text x="-1130.1062" xml:space="preserve" y="-1401.9395" font-family="sans-serif" clip-path="url(#clipPath2)" stroke="none">Biomass</text>
    </g>
    <g text-rendering="geometricPrecision" stroke-miterlimit="1.45" shape-rendering="geometricPrecision" transform="matrix(1.2317,0,0,1.2317,1954.6653,2285.9854)" stroke-linecap="butt">
      <path fill="none" d="M-959.2452 -1587.8501 L-939.2234 -1587.8501 L-939.2234 -1644.5228 L-927.2017 -1644.5228" clip-path="url(#clipPath2)"/>
      <path d="M-919.2017 -1644.5228 L-931.2017 -1649.5228 L-928.2017 -1644.5228 L-931.2017 -1639.5228 Z" clip-path="url(#clipPath2)" stroke="none"/>
      <path fill="none" d="M-778.1721 -1644.5228 L-748.0417 -1644.5228 L-748.0417 -1687.8149 L-1029.741 -1687.8149 L-1029.741 -1615.8137" clip-path="url(#clipPath2)"/>
      <path d="M-1029.741 -1607.8137 L-1024.741 -1619.8137 L-1029.741 -1616.8137 L-1034.741 -1619.8137 Z" clip-path="url(#clipPath2)" stroke="none"/>
      <path fill="none" d="M-959.2452 -1587.8501 L-939.2234 -1587.8501 L-939.2234 -1532.5286 L-927.2017 -1532.5286" clip-path="url(#clipPath2)"/>
      <path d="M-919.2017 -1532.5286 L-931.2017 -1537.5286 L-928.2017 -1532.5286 L-931.2017 -1527.5286 Z" clip-path="url(#clipPath2)" stroke="none"/>
      <path fill="none" d="M-778.1721 -1532.5286 L-748.0417 -1532.5286 L-748.0417 -1687.8149 L-1029.741 -1687.8149 L-1029.741 -1615.8137" clip-path="url(#clipPath2)"/>
      <path d="M-1029.741 -1607.8137 L-1024.741 -1619.8137 L-1029.741 -1616.8137 L-1034.741 -1619.8137 Z" clip-path="url(#clipPath2)" stroke="none"/>
      <path fill="none" d="M-1059.2094 -1607.877 L-1059.2094 -1644.5228 L-1251.8035 -1644.5228 L-1251.8035 -1615.8571" clip-path="url(#clipPath2)"/>
      <path d="M-1251.8035 -1607.8571 L-1246.8035 -1619.8571 L-1251.8035 -1616.8571 L-1256.8035 -1619.8571 Z" clip-path="url(#clipPath2)" stroke="none"/>
      <path fill="none" d="M-1181.2976 -1587.8501 L-1108.2281 -1587.8501" clip-path="url(#clipPath2)"/>
      <path d="M-1100.2281 -1587.8501 L-1112.2281 -1592.8501 L-1109.2281 -1587.8501 L-1112.2281 -1582.8501 Z" clip-path="url(#clipPath2)" stroke="none"/>
      <path fill="none" d="M-1280.8698 -1607.8271 L-1280.8698 -1644.5228 L-1463.0707 -1644.5228 L-1463.0707 -1615.8571" clip-path="url(#clipPath2)"/>
      <path d="M-1463.0707 -1607.8571 L-1458.0707 -1619.8571 L-1463.0707 -1616.8571 L-1468.0707 -1619.8571 Z" clip-path="url(#clipPath2)" stroke="none"/>
      <path fill="none" d="M-1392.5366 -1587.8501 L-1330.3418 -1587.8501" clip-path="url(#clipPath2)"/>
      <path d="M-1322.3418 -1587.8501 L-1334.3418 -1592.8501 L-1331.3418 -1587.8501 L-1334.3418 -1582.8501 Z" clip-path="url(#clipPath2)" stroke="none"/>
      <path fill="none" d="M-1463.0707 -1567.8285 L-1463.0707 -1466.7153 L-1231.8035 -1466.7153 L-1231.8035 -1406.0938 L-1163.2333 -1406.0938" clip-path="url(#clipPath2)"/>
      <path d="M-1155.2333 -1406.0938 L-1167.2333 -1411.0938 L-1164.2333 -1406.0938 L-1167.2333 -1401.0938 Z" clip-path="url(#clipPath2)" stroke="none"/>
      <path fill="none" d="M-1251.8035 -1567.8285 L-1251.8035 -1466.7153 L-1231.8035 -1466.7153 L-1231.8035 -1406.0938 L-1163.2333 -1406.0938" clip-path="url(#clipPath2)"/>
      <path d="M-1155.2333 -1406.0938 L-1167.2333 -1411.0938 L-1164.2333 -1406.0938 L-1167.2333 -1401.0938 Z" clip-path="url(#clipPath2)" stroke="none"/>
      <path fill="none" d="M-1029.741 -1567.8285 L-1029.741 -1466.7153 L-1231.8035 -1466.7153 L-1231.8035 -1406.0938 L-1163.2333 -1406.0938" clip-path="url(#clipPath2)"/>
      <path d="M-1155.2333 -1406.0938 L-1167.2333 -1411.0938 L-1164.2333 -1406.0938 L-1167.2333 -1401.0938 Z" clip-path="url(#clipPath2)" stroke="none"/>
      <path fill="none" d="M-778.1721 -1532.5286 L-748.0417 -1532.5286 L-748.0417 -1466.7153 L-1231.8035 -1466.7153 L-1231.8035 -1406.0938 L-1163.2333 -1406.0938" clip-path="url(#clipPath2)"/>
      <path d="M-1155.2333 -1406.0938 L-1167.2333 -1411.0938 L-1164.2333 -1406.0938 L-1167.2333 -1401.0938 Z" clip-path="url(#clipPath2)" stroke="none"/>
      <path fill="none" d="M-1054.5139 -1406.0938 L-1004.4434 -1406.0938 L-1004.4434 -1502.5485 L-1495.0642 -1502.5485 L-1495.0642 -1559.8643" clip-path="url(#clipPath2)"/>
      <path d="M-1495.0642 -1567.8643 L-1500.0642 -1555.8643 L-1495.0642 -1558.8643 L-1490.0642 -1555.8643 Z" clip-path="url(#clipPath2)" stroke="none"/>
      <path fill="none" d="M-1054.5139 -1406.0938 L-1004.4434 -1406.0938 L-1004.4434 -1502.5485 L-1282.8638 -1502.5485 L-1282.8638 -1559.8881" clip-path="url(#clipPath2)"/>
      <path d="M-1282.8638 -1567.8881 L-1287.8638 -1555.8881 L-1282.8638 -1558.8881 L-1277.8638 -1555.8881 Z" clip-path="url(#clipPath2)" stroke="none"/>
      <path fill="none" d="M-1054.5139 -1406.0938 L-1004.4434 -1406.0938 L-1004.4434 -1502.5485 L-1055.8241 -1502.5485 L-1055.8241 -1559.8903" clip-path="url(#clipPath2)"/>
      <path d="M-1055.8241 -1567.8903 L-1060.8241 -1555.8903 L-1055.8241 -1558.8903 L-1050.8241 -1555.8903 Z" clip-path="url(#clipPath2)" stroke="none"/>
      <path fill="none" d="M-1054.5139 -1406.0938 L-1004.4434 -1406.0938 L-1004.4434 -1502.5485 L-949.2579 -1502.5485 L-949.2579 -1587.8501 L-939.2234 -1587.8501 L-939.2234 -1532.5286 L-927.2017 -1532.5286" clip-path="url(#clipPath2)"/>
      <path d="M-919.2017 -1532.5286 L-931.2017 -1537.5286 L-928.2017 -1532.5286 L-931.2017 -1527.5286 Z" clip-path="url(#clipPath2)" stroke="none"/>
    </g>
  </g>
</svg>
