<?xml version="1.0" encoding="UTF-8"?><svg xmlns="http://www.w3.org/2000/svg" xmlns:xlink="http://www.w3.org/1999/xlink" fill-opacity="1" color-rendering="auto" color-interpolation="auto" stroke="black" text-rendering="auto" stroke-linecap="square" width="1106" stroke-miterlimit="10" stroke-opacity="1" shape-rendering="auto" fill="black" stroke-dasharray="none" font-weight="normal" stroke-width="1" height="773" font-family="'Dialog'" font-style="normal" stroke-linejoin="miter" font-size="12" stroke-dashoffset="0" image-rendering="auto">
  <!--Generated by ySVG 2.5-->
  <model_ports id="genericDefs"/>
  <g>
    <model_ports id="defs1">
      <linearGradient x1="-766.8715" gradientUnits="userSpaceOnUse" x2="-625.8363" y1="-544.7612" y2="-504.7612" id="linearGradient1" spreadMethod="reflect">
        <stop stop-opacity="1" stop-color="rgb(204,255,204)" offset="0%"/>
        <stop stop-opacity="1" stop-color="rgb(51,153,102)" offset="100%"/>
      </linearGradient>
      <linearGradient x1="-524.9767" gradientUnits="userSpaceOnUse" x2="-383.9415" y1="-544.7612" y2="-504.7612" id="linearGradient2" spreadMethod="reflect">
        <stop stop-opacity="1" stop-color="rgb(232,238,247)" offset="0%"/>
        <stop stop-opacity="1" stop-color="rgb(183,201,227)" offset="100%"/>
      </linearGradient>
      <linearGradient x1="-298.0237" gradientUnits="userSpaceOnUse" x2="-145.5213" y1="-544.7612" y2="-504.7612" id="linearGradient3" spreadMethod="reflect">
        <stop stop-opacity="1" stop-color="rgb(204,255,204)" offset="0%"/>
        <stop stop-opacity="1" stop-color="rgb(51,153,102)" offset="100%"/>
      </linearGradient>
      <clipPath clipPathUnits="userSpaceOnUse" id="clipPath1">
        <path d="M0 0 L1106 0 L1106 773 L0 773 L0 0 Z"/>
      </clipPath>
      <clipPath clipPathUnits="userSpaceOnUse" id="clipPath2">
        <path d="M-902 -858 L-4.0345 -858 L-4.0345 -230.3984 L-902 -230.3984 L-902 -858 Z"/>
      </clipPath>
    </model_ports>
    <g text-rendering="geometricPrecision" stroke-miterlimit="1.45" shape-rendering="geometricPrecision" font-family="sans-serif" transform="matrix(1.2317,0,0,1.2317,1110.9692,1056.7756)" stroke-linecap="butt">
      <text x="-856.5548" xml:space="preserve" y="-635.837" clip-path="url(#clipPath2)" stroke="none">Organelle coupled model</text>
    </g>
    <g text-rendering="geometricPrecision" stroke-miterlimit="1.45" shape-rendering="geometricPrecision" transform="matrix(1.2317,0,0,1.2317,1110.9692,1056.7756)" stroke-linecap="butt">
      <rect fill="none" x="-867.7311" width="830.3455" height="214.6796" y="-632.1011" clip-path="url(#clipPath2)"/>
    </g>
    <g fill="url(#linearGradient1)" text-rendering="geometricPrecision" shape-rendering="geometricPrecision" transform="matrix(1.2317,0,0,1.2317,1110.9692,1056.7756)" stroke="url(#linearGradient1)">
      <path d="M-766.8715 -544.7612 L-625.8363 -544.7612 L-625.8363 -504.7612 L-766.8715 -504.7612 Z" clip-path="url(#clipPath2)" stroke="none"/>
    </g>
    <g text-rendering="geometricPrecision" stroke-miterlimit="1.45" shape-rendering="geometricPrecision" transform="matrix(1.2317,0,0,1.2317,1110.9692,1056.7756)" stroke-linecap="butt">
      <path fill="none" d="M-766.8715 -544.7612 L-625.8363 -544.7612 L-625.8363 -504.7612 L-766.8715 -504.7612 Z" clip-path="url(#clipPath2)"/>
      <text x="-759.6146" xml:space="preserve" y="-527.5913" font-family="sans-serif" clip-path="url(#clipPath2)" stroke="none">Organelle Membrane</text>
      <text x="-736.7396" xml:space="preserve" y="-513.6226" font-family="sans-serif" clip-path="url(#clipPath2)" stroke="none">(reaction set)</text>
    </g>
    <g fill="url(#linearGradient2)" text-rendering="geometricPrecision" shape-rendering="geometricPrecision" transform="matrix(1.2317,0,0,1.2317,1110.9692,1056.7756)" stroke="url(#linearGradient2)">
      <path d="M-524.9767 -544.7612 L-383.9415 -544.7612 L-383.9415 -504.7612 L-524.9767 -504.7612 Z" clip-path="url(#clipPath2)" stroke="none"/>
    </g>
    <g text-rendering="geometricPrecision" stroke-miterlimit="1.45" shape-rendering="geometricPrecision" transform="matrix(1.2317,0,0,1.2317,1110.9692,1056.7756)" stroke-linecap="butt">
      <path fill="none" d="M-524.9767 -544.7612 L-383.9415 -544.7612 L-383.9415 -504.7612 L-524.9767 -504.7612 Z" clip-path="url(#clipPath2)"/>
      <text x="-503.8448" xml:space="preserve" y="-527.5913" font-family="sans-serif" clip-path="url(#clipPath2)" stroke="none">Organelle Space</text>
      <text x="-499.9513" xml:space="preserve" y="-513.6226" font-family="sans-serif" clip-path="url(#clipPath2)" stroke="none">(compartment)</text>
    </g>
    <g fill="url(#linearGradient3)" text-rendering="geometricPrecision" shape-rendering="geometricPrecision" transform="matrix(1.2317,0,0,1.2317,1110.9692,1056.7756)" stroke="url(#linearGradient3)">
      <path d="M-298.0237 -544.7612 L-145.5213 -544.7612 L-145.5213 -504.7612 L-298.0237 -504.7612 Z" clip-path="url(#clipPath2)" stroke="none"/>
    </g>
    <g text-rendering="geometricPrecision" stroke-miterlimit="1.45" shape-rendering="geometricPrecision" transform="matrix(1.2317,0,0,1.2317,1110.9692,1056.7756)" stroke-linecap="butt">
      <path fill="none" d="M-298.0237 -544.7612 L-145.5213 -544.7612 L-145.5213 -504.7612 L-298.0237 -504.7612 Z" clip-path="url(#clipPath2)"/>
      <text x="-268.4073" xml:space="preserve" y="-527.5913" font-family="sans-serif" clip-path="url(#clipPath2)" stroke="none">Organelle Inner</text>
      <text x="-262.1582" xml:space="preserve" y="-513.6226" font-family="sans-serif" clip-path="url(#clipPath2)" stroke="none">(reaction set)</text>
    </g>
    <g text-rendering="geometricPrecision" stroke-miterlimit="1.45" shape-rendering="geometricPrecision" transform="matrix(1.2317,0,0,1.2317,1110.9692,1056.7756)" stroke-linecap="butt">
      <path fill="none" d="M-625.8111 -524.7612 L-532.9493 -524.7612" clip-path="url(#clipPath2)"/>
      <path d="M-524.9493 -524.7612 L-536.9493 -529.7612 L-533.9493 -524.7612 L-536.9493 -519.7612 Z" clip-path="url(#clipPath2)" stroke="none"/>
      <path fill="none" d="M-383.9391 -524.7791 L-369.7381 -533.8994 L-369.7381 -564.7612 L-786.8715 -564.7612 L-786.8715 -533.8468 L-779.2447 -524.7612 L-774.8945 -524.7612" clip-path="url(#clipPath2)"/>
      <path d="M-766.8945 -524.7612 L-778.8945 -529.7612 L-775.8945 -524.7612 L-778.8945 -519.7612 Z" clip-path="url(#clipPath2)" stroke="none"/>
      <path fill="none" d="M-383.9316 -524.7612 L-306.0617 -524.7612" clip-path="url(#clipPath2)"/>
      <path d="M-298.0617 -524.7612 L-310.0617 -529.7612 L-307.0617 -524.7612 L-310.0617 -519.7612 Z" clip-path="url(#clipPath2)" stroke="none"/>
      <path fill="none" d="M-145.4953 -524.7612 L-125.5213 -524.7612 L-125.5213 -484.7612 L-454.4591 -484.7612 L-454.4591 -496.8003" clip-path="url(#clipPath2)"/>
      <path d="M-454.4591 -504.8003 L-459.4591 -492.8003 L-454.4591 -495.8003 L-449.4591 -492.8003 Z" clip-path="url(#clipPath2)" stroke="none"/>
      <path fill="none" d="M-867.7216 -524.7612 L-774.8506 -524.7612" clip-path="url(#clipPath2)"/>
      <path d="M-766.8506 -524.7612 L-778.8506 -529.7612 L-775.8506 -524.7612 L-778.8506 -519.7612 Z" clip-path="url(#clipPath2)" stroke="none"/>
      <path fill="none" d="M-625.838 -524.7612 L-579.37 -524.7612 L-579.37 -468.9657 L-108.3842 -468.9657 L-108.3842 -524.7612 L-45.4093 -524.7612" clip-path="url(#clipPath2)"/>
      <path d="M-37.4093 -524.7612 L-49.4093 -529.7612 L-46.4093 -524.7612 L-49.4093 -519.7612 Z" clip-path="url(#clipPath2)" stroke="none"/>
    </g>
  </g>
</svg>
