<?xml version="1.0" encoding="UTF-8"?><svg xmlns="http://www.w3.org/2000/svg" xmlns:xlink="http://www.w3.org/1999/xlink" fill-opacity="1" color-rendering="auto" color-interpolation="auto" stroke="black" text-rendering="auto" stroke-linecap="square" width="1106" stroke-miterlimit="10" stroke-opacity="1" shape-rendering="auto" fill="black" stroke-dasharray="none" font-weight="normal" stroke-width="1" height="773" font-family="'Dialog'" font-style="normal" stroke-linejoin="miter" font-size="12" stroke-dashoffset="0" image-rendering="auto">
  <!--Generated by ySVG 2.5-->
  <defs id="genericDefs"/>
  <g>
    <defs id="defs1">
      <linearGradient x1="-744.3147" gradientUnits="userSpaceOnUse" x2="-603.2795" y1="-1059.6357" y2="-1019.6357" id="linearGradient1" spreadMethod="reflect">
        <stop stop-opacity="1" stop-color="rgb(204,255,204)" offset="0%"/>
        <stop stop-opacity="1" stop-color="rgb(51,153,102)" offset="100%"/>
      </linearGradient>
      <linearGradient x1="-524.9767" gradientUnits="userSpaceOnUse" x2="-383.9415" y1="-1059.6357" y2="-1019.6357" id="linearGradient2" spreadMethod="reflect">
        <stop stop-opacity="1" stop-color="rgb(232,238,247)" offset="0%"/>
        <stop stop-opacity="1" stop-color="rgb(183,201,227)" offset="100%"/>
      </linearGradient>
      <linearGradient x1="-320.8982" gradientUnits="userSpaceOnUse" x2="-168.3958" y1="-1059.6357" y2="-1019.6357" id="linearGradient3" spreadMethod="reflect">
        <stop stop-opacity="1" stop-color="rgb(204,255,204)" offset="0%"/>
        <stop stop-opacity="1" stop-color="rgb(51,153,102)" offset="100%"/>
      </linearGradient>
      <linearGradient x1="-744.3147" gradientUnits="userSpaceOnUse" x2="-603.2795" y1="-989.6357" y2="-949.6357" id="linearGradient4" spreadMethod="reflect">
        <stop stop-opacity="1" stop-color="rgb(204,255,204)" offset="0%"/>
        <stop stop-opacity="1" stop-color="rgb(51,153,102)" offset="100%"/>
      </linearGradient>
      <linearGradient x1="-744.3147" gradientUnits="userSpaceOnUse" x2="-603.2795" y1="-1129.6357" y2="-1089.6357" id="linearGradient5" spreadMethod="reflect">
        <stop stop-opacity="1" stop-color="rgb(204,255,204)" offset="0%"/>
        <stop stop-opacity="1" stop-color="rgb(51,153,102)" offset="100%"/>
      </linearGradient>
      <clipPath clipPathUnits="userSpaceOnUse" id="clipPath1">
        <path d="M0 0 L1106 0 L1106 773 L0 773 L0 0 Z"/>
      </clipPath>
      <clipPath clipPathUnits="userSpaceOnUse" id="clipPath2">
        <path d="M-931 -1315 L-33.0345 -1315 L-33.0345 -687.3984 L-931 -687.3984 L-931 -1315 Z"/>
      </clipPath>
    </defs>
    <g text-rendering="geometricPrecision" stroke-miterlimit="1.45" shape-rendering="geometricPrecision" font-family="sans-serif" transform="matrix(1.2317,0,0,1.2317,1146.6877,1619.6502)" stroke-linecap="butt">
      <text x="-864.5485" xml:space="preserve" y="-1170.3696" clip-path="url(#clipPath2)" stroke="none">Periplasm coupled model</text>
    </g>
    <g text-rendering="geometricPrecision" stroke-miterlimit="1.45" shape-rendering="geometricPrecision" transform="matrix(1.2317,0,0,1.2317,1146.6877,1619.6502)" stroke-linecap="butt">
      <rect fill="none" x="-875.2768" width="789.8147" height="234.3377" y="-1166.6337" clip-path="url(#clipPath2)"/>
    </g>
    <g fill="url(#linearGradient1)" text-rendering="geometricPrecision" shape-rendering="geometricPrecision" transform="matrix(1.2317,0,0,1.2317,1146.6877,1619.6502)" stroke="url(#linearGradient1)">
      <path d="M-744.3147 -1059.6357 L-603.2795 -1059.6357 L-603.2795 -1019.6357 L-744.3147 -1019.6357 Z" clip-path="url(#clipPath2)" stroke="none"/>
    </g>
    <g text-rendering="geometricPrecision" stroke-miterlimit="1.45" shape-rendering="geometricPrecision" transform="matrix(1.2317,0,0,1.2317,1146.6877,1619.6502)" stroke-linecap="butt">
      <path fill="none" d="M-744.3147 -1059.6357 L-603.2795 -1059.6357 L-603.2795 -1019.6357 L-744.3147 -1019.6357 Z" clip-path="url(#clipPath2)"/>
      <text x="-724.8997" xml:space="preserve" y="-1042.4658" font-family="sans-serif" clip-path="url(#clipPath2)" stroke="none">Outer Membrane</text>
      <text x="-714.1829" xml:space="preserve" y="-1028.4971" font-family="sans-serif" clip-path="url(#clipPath2)" stroke="none">(reaction set)</text>
    </g>
    <g fill="url(#linearGradient2)" text-rendering="geometricPrecision" shape-rendering="geometricPrecision" transform="matrix(1.2317,0,0,1.2317,1146.6877,1619.6502)" stroke="url(#linearGradient2)">
      <path d="M-524.9767 -1059.6357 L-383.9415 -1059.6357 L-383.9415 -1019.6357 L-524.9767 -1019.6357 Z" clip-path="url(#clipPath2)" stroke="none"/>
    </g>
    <g text-rendering="geometricPrecision" stroke-miterlimit="1.45" shape-rendering="geometricPrecision" transform="matrix(1.2317,0,0,1.2317,1146.6877,1619.6502)" stroke-linecap="butt">
      <path fill="none" d="M-524.9767 -1059.6357 L-383.9415 -1059.6357 L-383.9415 -1019.6357 L-524.9767 -1019.6357 Z" clip-path="url(#clipPath2)"/>
      <text x="-504.2169" xml:space="preserve" y="-1042.4658" font-family="sans-serif" clip-path="url(#clipPath2)" stroke="none">Periplasm Space</text>
      <text x="-499.9513" xml:space="preserve" y="-1028.4971" font-family="sans-serif" clip-path="url(#clipPath2)" stroke="none">(compartment)</text>
    </g>
    <g fill="url(#linearGradient3)" text-rendering="geometricPrecision" shape-rendering="geometricPrecision" transform="matrix(1.2317,0,0,1.2317,1146.6877,1619.6502)" stroke="url(#linearGradient3)">
      <path d="M-320.8982 -1059.6357 L-168.3958 -1059.6357 L-168.3958 -1019.6357 L-320.8982 -1019.6357 Z" clip-path="url(#clipPath2)" stroke="none"/>
    </g>
    <g text-rendering="geometricPrecision" stroke-miterlimit="1.45" shape-rendering="geometricPrecision" transform="matrix(1.2317,0,0,1.2317,1146.6877,1619.6502)" stroke-linecap="butt">
      <path fill="none" d="M-320.8982 -1059.6357 L-168.3958 -1059.6357 L-168.3958 -1019.6357 L-320.8982 -1019.6357 Z" clip-path="url(#clipPath2)"/>
      <text x="-291.6539" xml:space="preserve" y="-1042.4658" font-family="sans-serif" clip-path="url(#clipPath2)" stroke="none">Periplasm Inner</text>
      <text x="-285.0328" xml:space="preserve" y="-1028.4971" font-family="sans-serif" clip-path="url(#clipPath2)" stroke="none">(reaction set)</text>
    </g>
    <g fill="url(#linearGradient4)" text-rendering="geometricPrecision" shape-rendering="geometricPrecision" transform="matrix(1.2317,0,0,1.2317,1146.6877,1619.6502)" stroke="url(#linearGradient4)">
      <path d="M-744.3147 -989.6357 L-603.2795 -989.6357 L-603.2795 -949.6357 L-744.3147 -949.6357 Z" clip-path="url(#clipPath2)" stroke="none"/>
    </g>
    <g text-rendering="geometricPrecision" stroke-miterlimit="1.45" shape-rendering="geometricPrecision" transform="matrix(1.2317,0,0,1.2317,1146.6877,1619.6502)" stroke-linecap="butt">
      <path fill="none" d="M-744.3147 -989.6357 L-603.2795 -989.6357 L-603.2795 -949.6357 L-744.3147 -949.6357 Z" clip-path="url(#clipPath2)"/>
      <text x="-723.3967" xml:space="preserve" y="-972.4658" font-family="sans-serif" clip-path="url(#clipPath2)" stroke="none">Inner Membrane</text>
      <text x="-714.1829" xml:space="preserve" y="-958.4971" font-family="sans-serif" clip-path="url(#clipPath2)" stroke="none">(reaction set)</text>
    </g>
    <g fill="url(#linearGradient5)" text-rendering="geometricPrecision" shape-rendering="geometricPrecision" transform="matrix(1.2317,0,0,1.2317,1146.6877,1619.6502)" stroke="url(#linearGradient5)">
      <path d="M-744.3147 -1129.6357 L-603.2795 -1129.6357 L-603.2795 -1089.6357 L-744.3147 -1089.6357 Z" clip-path="url(#clipPath2)" stroke="none"/>
    </g>
    <g text-rendering="geometricPrecision" stroke-miterlimit="1.45" shape-rendering="geometricPrecision" transform="matrix(1.2317,0,0,1.2317,1146.6877,1619.6502)" stroke-linecap="butt">
      <path fill="none" d="M-744.3147 -1129.6357 L-603.2795 -1129.6357 L-603.2795 -1089.6357 L-744.3147 -1089.6357 Z" clip-path="url(#clipPath2)"/>
      <text x="-723.2883" xml:space="preserve" y="-1112.4658" font-family="sans-serif" clip-path="url(#clipPath2)" stroke="none">trans Membrane</text>
      <text x="-714.1829" xml:space="preserve" y="-1098.4971" font-family="sans-serif" clip-path="url(#clipPath2)" stroke="none">(reaction set)</text>
    </g>
    <g text-rendering="geometricPrecision" stroke-miterlimit="1.45" shape-rendering="geometricPrecision" transform="matrix(1.2317,0,0,1.2317,1146.6877,1619.6502)" stroke-linecap="butt">
      <path fill="none" d="M-603.2741 -1039.6357 L-532.9686 -1039.6357" clip-path="url(#clipPath2)"/>
      <path d="M-524.9686 -1039.6357 L-536.9686 -1044.6357 L-533.9686 -1039.6357 L-536.9686 -1034.6357 Z" clip-path="url(#clipPath2)" stroke="none"/>
      <path fill="none" d="M-454.4591 -1059.6431 L-454.4591 -1149.6357 L-814.2108 -1149.6357 L-814.2108 -1050.2249 L-802.6176 -1039.6357 L-752.3144 -1039.6357" clip-path="url(#clipPath2)"/>
      <path d="M-744.3144 -1039.6357 L-756.3144 -1044.6357 L-753.3144 -1039.6357 L-756.3144 -1034.6357 Z" clip-path="url(#clipPath2)" stroke="none"/>
      <path fill="none" d="M-383.9497 -1039.6357 L-328.9302 -1039.6357" clip-path="url(#clipPath2)"/>
      <path d="M-320.9302 -1039.6357 L-332.9302 -1044.6357 L-329.9302 -1039.6357 L-332.9302 -1034.6357 Z" clip-path="url(#clipPath2)" stroke="none"/>
      <path fill="none" d="M-168.3698 -1039.6357 L-148.3958 -1039.6357 L-148.3958 -999.6357 L-454.4591 -999.6357 L-454.4591 -1011.5967" clip-path="url(#clipPath2)"/>
      <path d="M-454.4591 -1019.5967 L-459.4591 -1007.5967 L-454.4591 -1010.5967 L-449.4591 -1007.5967 Z" clip-path="url(#clipPath2)" stroke="none"/>
      <path fill="none" d="M-875.2703 -1039.6357 L-752.3393 -1039.6357" clip-path="url(#clipPath2)"/>
      <path d="M-744.3393 -1039.6357 L-756.3393 -1044.6357 L-753.3393 -1039.6357 L-756.3393 -1034.6357 Z" clip-path="url(#clipPath2)" stroke="none"/>
      <path fill="none" d="M-875.3015 -1039.6357 L-802.6176 -1039.6357 L-802.6176 -969.6357 L-752.3402 -969.6357" clip-path="url(#clipPath2)"/>
      <path d="M-744.3402 -969.6357 L-756.3402 -974.6357 L-753.3402 -969.6357 L-756.3402 -964.6357 Z" clip-path="url(#clipPath2)" stroke="none"/>
      <path fill="none" d="M-603.2922 -969.6357 L-565.5961 -969.6357 L-565.5961 -1039.6357 L-532.978 -1039.6357" clip-path="url(#clipPath2)"/>
      <path d="M-524.978 -1039.6357 L-536.978 -1044.6357 L-533.978 -1039.6357 L-536.978 -1034.6357 Z" clip-path="url(#clipPath2)" stroke="none"/>
      <path fill="none" d="M-603.2585 -969.6357 L-128.3958 -969.6357 L-128.3958 -1049.4648 L-93.4912 -1049.4648" clip-path="url(#clipPath2)"/>
      <path d="M-85.4912 -1049.4648 L-97.4912 -1054.4648 L-94.4912 -1049.4648 L-97.4912 -1044.4648 Z" clip-path="url(#clipPath2)" stroke="none"/>
      <path fill="none" d="M-875.3015 -1039.6357 L-802.6176 -1039.6357 L-802.6176 -1109.6357 L-752.3402 -1109.6357" clip-path="url(#clipPath2)"/>
      <path d="M-744.3402 -1109.6357 L-756.3402 -1114.6357 L-753.3402 -1109.6357 L-756.3402 -1104.6357 Z" clip-path="url(#clipPath2)" stroke="none"/>
      <path fill="none" d="M-603.2922 -1109.6357 L-565.5961 -1109.6357 L-565.5961 -1039.6357 L-532.978 -1039.6357" clip-path="url(#clipPath2)"/>
      <path d="M-524.978 -1039.6357 L-536.978 -1044.6357 L-533.978 -1039.6357 L-536.978 -1034.6357 Z" clip-path="url(#clipPath2)" stroke="none"/>
    </g>
  </g>
</svg>
