<?xml version="1.0" encoding="UTF-8"?><svg xmlns="http://www.w3.org/2000/svg" xmlns:xlink="http://www.w3.org/1999/xlink" fill-opacity="1" color-rendering="auto" color-interpolation="auto" stroke="black" text-rendering="auto" stroke-linecap="square" width="1106" stroke-miterlimit="10" stroke-opacity="1" shape-rendering="auto" fill="black" stroke-dasharray="none" font-weight="normal" stroke-width="1" height="773" font-family="'Dialog'" font-style="normal" stroke-linejoin="miter" font-size="12" stroke-dashoffset="0" image-rendering="auto">
  <!--Generated by ySVG 2.5-->
  <model_ports id="genericDefs"/>
  <g>
    <model_ports id="defs1">
      <linearGradient x1="-1637.184" gradientUnits="userSpaceOnUse" x2="-1496.1488" y1="-607.6962" y2="-567.6962" id="linearGradient1" spreadMethod="reflect">
        <stop stop-opacity="1" stop-color="rgb(232,238,247)" offset="0%"/>
        <stop stop-opacity="1" stop-color="rgb(183,201,227)" offset="100%"/>
      </linearGradient>
      <linearGradient x1="-1637.184" gradientUnits="userSpaceOnUse" x2="-1496.1488" y1="-487.1572" y2="-447.1572" id="linearGradient2" spreadMethod="reflect">
        <stop stop-opacity="1" stop-color="rgb(232,238,247)" offset="0%"/>
        <stop stop-opacity="1" stop-color="rgb(183,201,227)" offset="100%"/>
      </linearGradient>
      <clipPath clipPathUnits="userSpaceOnUse" id="clipPath1">
        <path d="M0 0 L1106 0 L1106 773 L0 773 L0 0 Z"/>
      </clipPath>
      <clipPath clipPathUnits="userSpaceOnUse" id="clipPath2">
        <path d="M-1962 -816 L-1064.0345 -816 L-1064.0345 -188.3984 L-1962 -188.3984 L-1962 -816 Z"/>
      </clipPath>
    </model_ports>
    <g text-rendering="geometricPrecision" stroke-miterlimit="1.45" shape-rendering="geometricPrecision" font-family="sans-serif" transform="matrix(1.2317,0,0,1.2317,2416.5428,1005.0453)" stroke-linecap="butt">
      <text x="-1727.6381" xml:space="preserve" y="-642.4666" clip-path="url(#clipPath2)" stroke="none">Reaction set coupled model</text>
    </g>
    <g text-rendering="geometricPrecision" stroke-miterlimit="1.45" shape-rendering="geometricPrecision" transform="matrix(1.2317,0,0,1.2317,2416.5428,1005.0453)" stroke-linecap="butt">
      <rect fill="none" x="-1733.0716" width="310.6975" height="227.9388" y="-638.7306" clip-path="url(#clipPath2)"/>
    </g>
    <g fill="url(#linearGradient1)" text-rendering="geometricPrecision" shape-rendering="geometricPrecision" transform="matrix(1.2317,0,0,1.2317,2416.5428,1005.0453)" stroke="url(#linearGradient1)">
      <path d="M-1637.184 -607.6962 L-1496.1488 -607.6962 L-1496.1488 -567.6962 L-1637.184 -567.6962 Z" clip-path="url(#clipPath2)" stroke="none"/>
    </g>
    <g text-rendering="geometricPrecision" stroke-miterlimit="1.45" shape-rendering="geometricPrecision" transform="matrix(1.2317,0,0,1.2317,2416.5428,1005.0453)" stroke-linecap="butt">
      <path fill="none" d="M-1637.184 -607.6962 L-1496.1488 -607.6962 L-1496.1488 -567.6962 L-1637.184 -567.6962 Z" clip-path="url(#clipPath2)"/>
      <text x="-1598.7201" xml:space="preserve" y="-590.5263" font-family="sans-serif" clip-path="url(#clipPath2)" stroke="none">Reaction 1</text>
      <text x="-1595.975" xml:space="preserve" y="-576.5576" font-family="sans-serif" clip-path="url(#clipPath2)" stroke="none">(reaction)</text>
      <text x="-1569.8451" font-size="20" y="-547.9053" clip-path="url(#clipPath2)" font-family="sans-serif" stroke="none" xml:space="preserve">.</text>
      <text x="-1569.8451" font-size="20" y="-524.624" clip-path="url(#clipPath2)" font-family="sans-serif" stroke="none" xml:space="preserve">.</text>
      <text x="-1569.8451" font-size="20" y="-501.3428" clip-path="url(#clipPath2)" font-family="sans-serif" stroke="none" xml:space="preserve">.</text>
    </g>
    <g fill="url(#linearGradient2)" text-rendering="geometricPrecision" shape-rendering="geometricPrecision" transform="matrix(1.2317,0,0,1.2317,2416.5428,1005.0453)" stroke="url(#linearGradient2)">
      <path d="M-1637.184 -487.1572 L-1496.1488 -487.1572 L-1496.1488 -447.1572 L-1637.184 -447.1572 Z" clip-path="url(#clipPath2)" stroke="none"/>
    </g>
    <g text-rendering="geometricPrecision" stroke-miterlimit="1.45" shape-rendering="geometricPrecision" transform="matrix(1.2317,0,0,1.2317,2416.5428,1005.0453)" stroke-linecap="butt">
      <path fill="none" d="M-1637.184 -487.1572 L-1496.1488 -487.1572 L-1496.1488 -447.1572 L-1637.184 -447.1572 Z" clip-path="url(#clipPath2)"/>
      <text x="-1600.7474" xml:space="preserve" y="-469.9873" font-family="sans-serif" clip-path="url(#clipPath2)" stroke="none">Reaction m</text>
      <text x="-1595.975" xml:space="preserve" y="-456.0185" font-family="sans-serif" clip-path="url(#clipPath2)" stroke="none">(reaction)</text>
    </g>
    <g text-rendering="geometricPrecision" stroke-miterlimit="1.45" shape-rendering="geometricPrecision" transform="matrix(1.2317,0,0,1.2317,2416.5428,1005.0453)" stroke-linecap="butt">
      <path fill="none" d="M-1733.0773 -524.7612 L-1688.6459 -524.7612 L-1688.6459 -587.6962 L-1645.156 -587.6962" clip-path="url(#clipPath2)"/>
      <path d="M-1637.156 -587.6962 L-1649.156 -592.6962 L-1646.156 -587.6962 L-1649.156 -582.6962 Z" clip-path="url(#clipPath2)" stroke="none"/>
      <path fill="none" d="M-1733.0773 -524.7612 L-1688.6459 -524.7612 L-1688.6459 -467.1572 L-1645.156 -467.1572" clip-path="url(#clipPath2)"/>
      <path d="M-1637.156 -467.1572 L-1649.156 -472.1572 L-1646.156 -467.1572 L-1649.156 -462.1572 Z" clip-path="url(#clipPath2)" stroke="none"/>
      <path fill="none" d="M-1496.1272 -587.6962 L-1463.0707 -587.6962 L-1463.0707 -524.7612 L-1430.3971 -524.7612" clip-path="url(#clipPath2)"/>
      <path d="M-1422.3971 -524.7612 L-1434.3971 -529.7612 L-1431.3971 -524.7612 L-1434.3971 -519.7612 Z" clip-path="url(#clipPath2)" stroke="none"/>
      <path fill="none" d="M-1496.1272 -467.1572 L-1463.0707 -467.1572 L-1463.0707 -524.7612 L-1430.3971 -524.7612" clip-path="url(#clipPath2)"/>
      <path d="M-1422.3971 -524.7612 L-1434.3971 -529.7612 L-1431.3971 -524.7612 L-1434.3971 -519.7612 Z" clip-path="url(#clipPath2)" stroke="none"/>
    </g>
  </g>
</svg>
