<?xml version="1.0" encoding="UTF-8"?><svg xmlns="http://www.w3.org/2000/svg" xmlns:xlink="http://www.w3.org/1999/xlink" fill-opacity="1" color-rendering="auto" color-interpolation="auto" stroke="black" text-rendering="auto" stroke-linecap="square" width="1106" stroke-miterlimit="10" stroke-opacity="1" shape-rendering="auto" fill="black" stroke-dasharray="none" font-weight="normal" stroke-width="1" height="773" font-family="'Dialog'" font-style="normal" stroke-linejoin="miter" font-size="12" stroke-dashoffset="0" image-rendering="auto">
  <!--Generated by ySVG 2.5-->
  <model_ports id="genericDefs"/>
  <g>
    <model_ports id="defs1">
      <linearGradient x1="-251.785" gradientUnits="userSpaceOnUse" x2="-122.0776" y1="-1371.4142" y2="-1331.4142" id="linearGradient1" spreadMethod="reflect">
        <stop stop-opacity="1" stop-color="rgb(232,238,247)" offset="0%"/>
        <stop stop-opacity="1" stop-color="rgb(183,201,227)" offset="100%"/>
      </linearGradient>
      <linearGradient x1="-92.0776" gradientUnits="userSpaceOnUse" x2="48.9576" y1="-1371.4142" y2="-1331.4142" id="linearGradient2" spreadMethod="reflect">
        <stop stop-opacity="1" stop-color="rgb(232,238,247)" offset="0%"/>
        <stop stop-opacity="1" stop-color="rgb(183,201,227)" offset="100%"/>
      </linearGradient>
      <linearGradient x1="-251.785" gradientUnits="userSpaceOnUse" x2="-117.9862" y1="-1486.2407" y2="-1446.2407" id="linearGradient3" spreadMethod="reflect">
        <stop stop-opacity="1" stop-color="rgb(232,238,247)" offset="0%"/>
        <stop stop-opacity="1" stop-color="rgb(183,201,227)" offset="100%"/>
      </linearGradient>
      <linearGradient x1="-92.0776" gradientUnits="userSpaceOnUse" x2="48.9576" y1="-1486.2407" y2="-1446.2407" id="linearGradient4" spreadMethod="reflect">
        <stop stop-opacity="1" stop-color="rgb(232,238,247)" offset="0%"/>
        <stop stop-opacity="1" stop-color="rgb(183,201,227)" offset="100%"/>
      </linearGradient>
      <linearGradient x1="-251.785" gradientUnits="userSpaceOnUse" x2="-122.0776" y1="-1269.4791" y2="-1229.4791" id="linearGradient5" spreadMethod="reflect">
        <stop stop-opacity="1" stop-color="rgb(232,238,247)" offset="0%"/>
        <stop stop-opacity="1" stop-color="rgb(183,201,227)" offset="100%"/>
      </linearGradient>
      <linearGradient x1="-92.0776" gradientUnits="userSpaceOnUse" x2="48.9576" y1="-1269.4791" y2="-1229.4791" id="linearGradient6" spreadMethod="reflect">
        <stop stop-opacity="1" stop-color="rgb(232,238,247)" offset="0%"/>
        <stop stop-opacity="1" stop-color="rgb(183,201,227)" offset="100%"/>
      </linearGradient>
      <clipPath clipPathUnits="userSpaceOnUse" id="clipPath1">
        <path d="M0 0 L1106 0 L1106 773 L0 773 L0 0 Z"/>
      </clipPath>
      <clipPath clipPathUnits="userSpaceOnUse" id="clipPath2">
        <path d="M-405 -1576 L228.9933 -1576 L228.9933 -1132.8926 L-405 -1132.8926 L-405 -1576 Z"/>
      </clipPath>
    </model_ports>
    <g fill="white" text-rendering="geometricPrecision" shape-rendering="geometricPrecision" transform="scale(1.7445,1.7445) translate(405,1576)" stroke="white">
      <rect x="-405" width="634" height="444" y="-1576" clip-path="url(#clipPath2)" stroke="none"/>
    </g>
    <g text-rendering="geometricPrecision" stroke-miterlimit="1.45" shape-rendering="geometricPrecision" font-family="sans-serif" transform="matrix(1.7445,0,0,1.7445,706.5216,2749.3286)" stroke-linecap="butt">
      <text x="-266.9283" xml:space="preserve" y="-1388.0417" clip-path="url(#clipPath2)" stroke="none">Reaction</text>
      <rect fill="none" x="-272.7859" width="349.065" height="62.1555" y="-1384.3057" clip-path="url(#clipPath2)"/>
    </g>
    <g fill="url(#linearGradient1)" text-rendering="geometricPrecision" shape-rendering="geometricPrecision" transform="matrix(1.7445,0,0,1.7445,706.5216,2749.3286)" stroke="url(#linearGradient1)">
      <path d="M-251.785 -1371.4142 L-122.0776 -1371.4142 L-122.0776 -1331.4142 L-251.785 -1331.4142 Z" clip-path="url(#clipPath2)" stroke="none"/>
    </g>
    <g text-rendering="geometricPrecision" stroke-miterlimit="1.45" shape-rendering="geometricPrecision" transform="matrix(1.7445,0,0,1.7445,706.5216,2749.3286)" stroke-linecap="butt">
      <path fill="none" d="M-251.785 -1371.4142 L-122.0776 -1371.4142 L-122.0776 -1331.4142 L-251.785 -1331.4142 Z" clip-path="url(#clipPath2)"/>
      <text x="-227.9645" xml:space="preserve" y="-1354.2443" font-family="sans-serif" clip-path="url(#clipPath2)" stroke="none">Enzyme Filter</text>
      <text x="-205.5699" xml:space="preserve" y="-1340.2755" font-family="sans-serif" clip-path="url(#clipPath2)" stroke="none">(filter)</text>
    </g>
    <g fill="url(#linearGradient2)" text-rendering="geometricPrecision" shape-rendering="geometricPrecision" transform="matrix(1.7445,0,0,1.7445,706.5216,2749.3286)" stroke="url(#linearGradient2)">
      <path d="M-92.0776 -1371.4142 L48.9576 -1371.4142 L48.9576 -1331.4142 L-92.0776 -1331.4142 Z" clip-path="url(#clipPath2)" stroke="none"/>
    </g>
    <g text-rendering="geometricPrecision" stroke-miterlimit="1.45" shape-rendering="geometricPrecision" transform="matrix(1.7445,0,0,1.7445,706.5216,2749.3286)" stroke-linecap="butt">
      <path fill="none" d="M-92.0776 -1371.4142 L48.9576 -1371.4142 L48.9576 -1331.4142 L-92.0776 -1331.4142 Z" clip-path="url(#clipPath2)"/>
      <text x="-61.061" xml:space="preserve" y="-1347.2599" font-family="sans-serif" clip-path="url(#clipPath2)" stroke="none">atm_reaction</text>
    </g>
    <g text-rendering="geometricPrecision" stroke-miterlimit="1.45" shape-rendering="geometricPrecision" font-family="sans-serif" transform="matrix(1.7445,0,0,1.7445,706.5216,2749.3286)" stroke-linecap="butt">
      <text x="-266.9283" xml:space="preserve" y="-1502.8683" clip-path="url(#clipPath2)" stroke="none">compartment</text>
      <rect fill="none" x="-272.7859" width="349.065" height="62.1555" y="-1499.1323" clip-path="url(#clipPath2)"/>
    </g>
    <g fill="url(#linearGradient3)" text-rendering="geometricPrecision" shape-rendering="geometricPrecision" transform="matrix(1.7445,0,0,1.7445,706.5216,2749.3286)" stroke="url(#linearGradient3)">
      <path d="M-251.785 -1486.2407 L-117.9862 -1486.2407 L-117.9862 -1446.2407 L-251.785 -1446.2407 Z" clip-path="url(#clipPath2)" stroke="none"/>
    </g>
    <g text-rendering="geometricPrecision" stroke-miterlimit="1.45" shape-rendering="geometricPrecision" transform="matrix(1.7445,0,0,1.7445,706.5216,2749.3286)" stroke-linecap="butt">
      <path fill="none" d="M-251.785 -1486.2407 L-117.9862 -1486.2407 L-117.9862 -1446.2407 L-251.785 -1446.2407 Z" clip-path="url(#clipPath2)"/>
      <text x="-243.7899" xml:space="preserve" y="-1469.0708" font-family="sans-serif" clip-path="url(#clipPath2)" stroke="none">Compartment Filter</text>
      <text x="-203.5243" xml:space="preserve" y="-1455.1021" font-family="sans-serif" clip-path="url(#clipPath2)" stroke="none">(filter)</text>
    </g>
    <g fill="url(#linearGradient4)" text-rendering="geometricPrecision" shape-rendering="geometricPrecision" transform="matrix(1.7445,0,0,1.7445,706.5216,2749.3286)" stroke="url(#linearGradient4)">
      <path d="M-92.0776 -1486.2407 L48.9576 -1486.2407 L48.9576 -1446.2407 L-92.0776 -1446.2407 Z" clip-path="url(#clipPath2)" stroke="none"/>
    </g>
    <g text-rendering="geometricPrecision" stroke-miterlimit="1.45" shape-rendering="geometricPrecision" transform="matrix(1.7445,0,0,1.7445,706.5216,2749.3286)" stroke-linecap="butt">
      <path fill="none" d="M-92.0776 -1486.2407 L48.9576 -1486.2407 L48.9576 -1446.2407 L-92.0776 -1446.2407 Z" clip-path="url(#clipPath2)"/>
      <text x="-39.8442" xml:space="preserve" y="-1462.0864" font-family="sans-serif" clip-path="url(#clipPath2)" stroke="none">Space</text>
    </g>
    <g text-rendering="geometricPrecision" stroke-miterlimit="1.45" shape-rendering="geometricPrecision" font-family="sans-serif" transform="matrix(1.7445,0,0,1.7445,706.5216,2749.3286)" stroke-linecap="butt">
      <text x="-266.9283" xml:space="preserve" y="-1284.293" clip-path="url(#clipPath2)" stroke="none">biomass</text>
      <rect fill="none" x="-272.7859" width="349.065" height="62.1555" y="-1280.5569" clip-path="url(#clipPath2)"/>
    </g>
    <g fill="url(#linearGradient5)" text-rendering="geometricPrecision" shape-rendering="geometricPrecision" transform="matrix(1.7445,0,0,1.7445,706.5216,2749.3286)" stroke="url(#linearGradient5)">
      <path d="M-251.785 -1269.4791 L-122.0776 -1269.4791 L-122.0776 -1229.4791 L-251.785 -1229.4791 Z" clip-path="url(#clipPath2)" stroke="none"/>
    </g>
    <g text-rendering="geometricPrecision" stroke-miterlimit="1.45" shape-rendering="geometricPrecision" transform="matrix(1.7445,0,0,1.7445,706.5216,2749.3286)" stroke-linecap="butt">
      <path fill="none" d="M-251.785 -1269.4791 L-122.0776 -1269.4791 L-122.0776 -1229.4791 L-251.785 -1229.4791 Z" clip-path="url(#clipPath2)"/>
      <text x="-229.3619" xml:space="preserve" y="-1252.3092" font-family="sans-serif" clip-path="url(#clipPath2)" stroke="none">Biomass Filter</text>
      <text x="-205.5699" xml:space="preserve" y="-1238.3405" font-family="sans-serif" clip-path="url(#clipPath2)" stroke="none">(filter)</text>
    </g>
    <g fill="url(#linearGradient6)" text-rendering="geometricPrecision" shape-rendering="geometricPrecision" transform="matrix(1.7445,0,0,1.7445,706.5216,2749.3286)" stroke="url(#linearGradient6)">
      <path d="M-92.0776 -1269.4791 L48.9576 -1269.4791 L48.9576 -1229.4791 L-92.0776 -1229.4791 Z" clip-path="url(#clipPath2)" stroke="none"/>
    </g>
    <g text-rendering="geometricPrecision" stroke-miterlimit="1.45" shape-rendering="geometricPrecision" transform="matrix(1.7445,0,0,1.7445,706.5216,2749.3286)" stroke-linecap="butt">
      <path fill="none" d="M-92.0776 -1269.4791 L48.9576 -1269.4791 L48.9576 -1229.4791 L-92.0776 -1229.4791 Z" clip-path="url(#clipPath2)"/>
      <text x="-75.0239" xml:space="preserve" y="-1245.3248" font-family="sans-serif" clip-path="url(#clipPath2)" stroke="none">Biomass Reaction</text>
    </g>
    <g text-rendering="geometricPrecision" stroke-miterlimit="1.45" shape-rendering="geometricPrecision" transform="matrix(1.7445,0,0,1.7445,706.5216,2749.3286)" stroke-linecap="butt">
      <path fill="none" d="M-122.0505 -1351.4142 L-100.0702 -1351.4142" clip-path="url(#clipPath2)"/>
      <path d="M-92.0702 -1351.4142 L-104.0702 -1356.4142 L-101.0702 -1351.4142 L-104.0702 -1346.4142 Z" clip-path="url(#clipPath2)" stroke="none"/>
      <path fill="none" d="M-272.8221 -1351.4142 L-259.8107 -1351.4142" clip-path="url(#clipPath2)"/>
      <path d="M-251.8107 -1351.4142 L-263.8107 -1356.4142 L-260.8107 -1351.4142 L-263.8107 -1346.4142 Z" clip-path="url(#clipPath2)" stroke="none"/>
      <path fill="none" d="M48.9772 -1351.4142 L68.2632 -1351.4142" clip-path="url(#clipPath2)"/>
      <path d="M76.2632 -1351.4142 L64.2632 -1356.4142 L67.2632 -1351.4142 L64.2632 -1346.4142 Z" clip-path="url(#clipPath2)" stroke="none"/>
      <path fill="none" d="M-118.0162 -1466.2407 L-100.0654 -1466.2407" clip-path="url(#clipPath2)"/>
      <path d="M-92.0654 -1466.2407 L-104.0654 -1471.2407 L-101.0654 -1466.2407 L-104.0654 -1461.2407 Z" clip-path="url(#clipPath2)" stroke="none"/>
      <path fill="none" d="M-272.8111 -1466.2407 L-259.8172 -1466.2407" clip-path="url(#clipPath2)"/>
      <path d="M-251.8172 -1466.2407 L-263.8172 -1471.2407 L-260.8172 -1466.2407 L-263.8172 -1461.2407 Z" clip-path="url(#clipPath2)" stroke="none"/>
      <path fill="none" d="M48.9772 -1466.2407 L68.2632 -1466.2407" clip-path="url(#clipPath2)"/>
      <path d="M76.2632 -1466.2407 L64.2632 -1471.2407 L67.2632 -1466.2407 L64.2632 -1461.2407 Z" clip-path="url(#clipPath2)" stroke="none"/>
      <path fill="none" d="M-122.0505 -1249.4791 L-100.0702 -1249.4791" clip-path="url(#clipPath2)"/>
      <path d="M-92.0702 -1249.4791 L-104.0702 -1254.4791 L-101.0702 -1249.4791 L-104.0702 -1244.4791 Z" clip-path="url(#clipPath2)" stroke="none"/>
      <path fill="none" d="M-272.8221 -1249.4791 L-259.8107 -1249.4791" clip-path="url(#clipPath2)"/>
      <path d="M-251.8107 -1249.4791 L-263.8107 -1254.4791 L-260.8107 -1249.4791 L-263.8107 -1244.4791 Z" clip-path="url(#clipPath2)" stroke="none"/>
      <path fill="none" d="M48.9772 -1249.4791 L68.2632 -1249.4791" clip-path="url(#clipPath2)"/>
      <path d="M76.2632 -1249.4791 L64.2632 -1254.4791 L67.2632 -1249.4791 L64.2632 -1244.4791 Z" clip-path="url(#clipPath2)" stroke="none"/>
    </g>
  </g>
</svg>
