<?xml version="1.0" encoding="UTF-8"?><svg xmlns="http://www.w3.org/2000/svg" xmlns:xlink="http://www.w3.org/1999/xlink" fill-opacity="1" color-rendering="auto" color-interpolation="auto" stroke="black" text-rendering="auto" stroke-linecap="square" width="1106" stroke-miterlimit="10" stroke-opacity="1" shape-rendering="auto" fill="black" stroke-dasharray="none" font-weight="normal" stroke-width="1" height="773" font-family="'Dialog'" font-style="normal" stroke-linejoin="miter" font-size="12" stroke-dashoffset="0" image-rendering="auto">
  <!--Generated by ySVG 2.5-->
  <defs id="genericDefs"/>
  <g>
    <defs id="defs1">
      <linearGradient x1="-1023.3902" gradientUnits="userSpaceOnUse" x2="-882.355" y1="-560.185" y2="-520.185" id="linearGradient1" spreadMethod="reflect">
        <stop stop-opacity="1" stop-color="rgb(204,255,204)" offset="0%"/>
        <stop stop-opacity="1" stop-color="rgb(51,153,102)" offset="100%"/>
      </linearGradient>
      <linearGradient x1="-802.1708" gradientUnits="userSpaceOnUse" x2="-643.9349" y1="-560.185" y2="-520.185" id="linearGradient2" spreadMethod="reflect">
        <stop stop-opacity="1" stop-color="rgb(204,255,204)" offset="0%"/>
        <stop stop-opacity="1" stop-color="rgb(51,153,102)" offset="100%"/>
      </linearGradient>
      <linearGradient x1="-1242.6815" gradientUnits="userSpaceOnUse" x2="-1107.4666" y1="-560.185" y2="-520.185" id="linearGradient3" spreadMethod="reflect">
        <stop stop-opacity="1" stop-color="rgb(232,238,247)" offset="0%"/>
        <stop stop-opacity="1" stop-color="rgb(183,201,227)" offset="100%"/>
      </linearGradient>
      <clipPath clipPathUnits="userSpaceOnUse" id="clipPath1">
        <path d="M0 0 L1106 0 L1106 773 L0 773 L0 0 Z"/>
      </clipPath>
      <clipPath clipPathUnits="userSpaceOnUse" id="clipPath2">
        <path d="M-1414 -885 L-423.3854 -885 L-423.3854 -192.6446 L-1414 -192.6446 L-1414 -885 Z"/>
      </clipPath>
    </defs>
    <g fill="white" text-rendering="geometricPrecision" shape-rendering="geometricPrecision" transform="scale(1.1165,1.1165) translate(1414,885)" stroke="white">
      <rect x="-1414" width="991" height="693" y="-885" clip-path="url(#clipPath2)" stroke="none"/>
    </g>
    <g text-rendering="geometricPrecision" stroke-miterlimit="1.45" shape-rendering="geometricPrecision" font-family="sans-serif" transform="matrix(1.1165,0,0,1.1165,1578.7008,988.0836)" stroke-linecap="butt">
      <text x="-1328.6161" xml:space="preserve" y="-651.2609" clip-path="url(#clipPath2)" stroke="none">Bulk solution</text>
      <rect fill="none" x="-1339.4979" width="803.6987" height="214.6796" y="-647.5249" clip-path="url(#clipPath2)"/>
    </g>
    <g fill="url(#linearGradient1)" text-rendering="geometricPrecision" shape-rendering="geometricPrecision" transform="matrix(1.1165,0,0,1.1165,1578.7008,988.0836)" stroke="url(#linearGradient1)">
      <path d="M-1023.3902 -560.185 L-882.355 -560.185 L-882.355 -520.185 L-1023.3902 -520.185 Z" clip-path="url(#clipPath2)" stroke="none"/>
    </g>
    <g text-rendering="geometricPrecision" stroke-miterlimit="1.45" shape-rendering="geometricPrecision" transform="matrix(1.1165,0,0,1.1165,1578.7008,988.0836)" stroke-linecap="butt">
      <path fill="none" d="M-1023.3902 -560.185 L-882.355 -560.185 L-882.355 -520.185 L-1023.3902 -520.185 Z" clip-path="url(#clipPath2)"/>
      <text x="-1011.7916" xml:space="preserve" y="-543.0151" font-family="sans-serif" clip-path="url(#clipPath2)" stroke="none">Bulk solution Space</text>
      <text x="-998.3648" xml:space="preserve" y="-529.0463" font-family="sans-serif" clip-path="url(#clipPath2)" stroke="none">(compartment)</text>
    </g>
    <g fill="url(#linearGradient2)" text-rendering="geometricPrecision" shape-rendering="geometricPrecision" transform="matrix(1.1165,0,0,1.1165,1578.7008,988.0836)" stroke="url(#linearGradient2)">
      <path d="M-802.1708 -560.185 L-643.9349 -560.185 L-643.9349 -520.185 L-802.1708 -520.185 Z" clip-path="url(#clipPath2)" stroke="none"/>
    </g>
    <g text-rendering="geometricPrecision" stroke-miterlimit="1.45" shape-rendering="geometricPrecision" transform="matrix(1.1165,0,0,1.1165,1578.7008,988.0836)" stroke-linecap="butt">
      <path fill="none" d="M-802.1708 -560.185 L-643.9349 -560.185 L-643.9349 -520.185 L-802.1708 -520.185 Z" clip-path="url(#clipPath2)"/>
      <text x="-779.2208" xml:space="preserve" y="-543.0151" font-family="sans-serif" clip-path="url(#clipPath2)" stroke="none">Bulk solution Inner</text>
      <text x="-762.5421" xml:space="preserve" y="-529.0463" font-family="sans-serif" clip-path="url(#clipPath2)" stroke="none">(enzyme set)</text>
    </g>
    <g fill="url(#linearGradient3)" text-rendering="geometricPrecision" shape-rendering="geometricPrecision" transform="matrix(1.1165,0,0,1.1165,1578.7008,988.0836)" stroke="url(#linearGradient3)">
      <path d="M-1242.6815 -560.185 L-1107.4666 -560.185 L-1107.4666 -520.185 L-1242.6815 -520.185 Z" clip-path="url(#clipPath2)" stroke="none"/>
    </g>
    <g text-rendering="geometricPrecision" stroke-miterlimit="1.45" shape-rendering="geometricPrecision" transform="matrix(1.1165,0,0,1.1165,1578.7008,988.0836)" stroke-linecap="butt">
      <path fill="none" d="M-1242.6815 -560.185 L-1107.4666 -560.185 L-1107.4666 -520.185 L-1242.6815 -520.185 Z" clip-path="url(#clipPath2)"/>
      <text x="-1231.0046" xml:space="preserve" y="-543.0151" font-family="sans-serif" clip-path="url(#clipPath2)" stroke="none">Bulk solution Filter</text>
      <text x="-1193.7126" xml:space="preserve" y="-529.0463" font-family="sans-serif" clip-path="url(#clipPath2)" stroke="none">(filter)</text>
    </g>
    <g text-rendering="geometricPrecision" stroke-miterlimit="1.45" shape-rendering="geometricPrecision" transform="matrix(1.1165,0,0,1.1165,1578.7008,988.0836)" stroke-linecap="butt">
      <path fill="none" d="M-882.3725 -540.185 L-810.207 -540.185" clip-path="url(#clipPath2)"/>
      <path d="M-802.207 -540.185 L-814.207 -545.185 L-811.207 -540.185 L-814.207 -535.185 Z" clip-path="url(#clipPath2)" stroke="none"/>
      <path fill="none" d="M-643.9238 -540.185 L-623.9349 -540.185 L-623.9349 -500.185 L-952.8726 -500.185 L-952.8726 -512.1459" clip-path="url(#clipPath2)"/>
      <path d="M-952.8726 -520.1459 L-957.8726 -508.1459 L-952.8726 -511.1459 L-947.8726 -508.1459 Z" clip-path="url(#clipPath2)" stroke="none"/>
      <path fill="none" d="M-882.3608 -540.185 L-835.1326 -540.185 L-835.1326 -580.185 L-606.7978 -580.185 L-606.7978 -540.185 L-543.8229 -540.185" clip-path="url(#clipPath2)"/>
      <path d="M-535.8229 -540.185 L-547.8229 -545.185 L-544.8229 -540.185 L-547.8229 -535.185 Z" clip-path="url(#clipPath2)" stroke="none"/>
      <path fill="none" d="M-1339.5156 -540.185 L-1250.6642 -540.185" clip-path="url(#clipPath2)"/>
      <path d="M-1242.6642 -540.185 L-1254.6642 -545.185 L-1251.6642 -540.185 L-1254.6642 -535.185 Z" clip-path="url(#clipPath2)" stroke="none"/>
      <path fill="none" d="M-1107.4534 -540.185 L-1031.4077 -540.185" clip-path="url(#clipPath2)"/>
      <path d="M-1023.4077 -540.185 L-1035.4077 -545.185 L-1032.4077 -540.185 L-1035.4077 -535.185 Z" clip-path="url(#clipPath2)" stroke="none"/>
    </g>
  </g>
</svg>
