<?xml version="1.0" encoding="UTF-8"?><svg xmlns="http://www.w3.org/2000/svg" xmlns:xlink="http://www.w3.org/1999/xlink" fill-opacity="1" color-rendering="auto" color-interpolation="auto" stroke="black" text-rendering="auto" stroke-linecap="square" width="1106" stroke-miterlimit="10" stroke-opacity="1" shape-rendering="auto" fill="black" stroke-dasharray="none" font-weight="normal" stroke-width="1" height="773" font-family="'Dialog'" font-style="normal" stroke-linejoin="miter" font-size="12" stroke-dashoffset="0" image-rendering="auto">
  <!--Generated by ySVG 2.5-->
  <defs id="genericDefs"/>
  <g>
    <defs id="defs1">
      <linearGradient x1="-1224.1929" gradientUnits="userSpaceOnUse" x2="-1083.1577" y1="-1433.8245" y2="-1393.8245" id="linearGradient1" spreadMethod="reflect">
        <stop stop-opacity="1" stop-color="rgb(204,255,204)" offset="0%"/>
        <stop stop-opacity="1" stop-color="rgb(51,153,102)" offset="100%"/>
      </linearGradient>
      <linearGradient x1="-1224.1929" gradientUnits="userSpaceOnUse" x2="-1083.1577" y1="-1308.5514" y2="-1268.5514" id="linearGradient2" spreadMethod="reflect">
        <stop stop-opacity="1" stop-color="rgb(204,255,204)" offset="0%"/>
        <stop stop-opacity="1" stop-color="rgb(51,153,102)" offset="100%"/>
      </linearGradient>
      <linearGradient x1="-1224.1929" gradientUnits="userSpaceOnUse" x2="-1083.1577" y1="-1195.0092" y2="-1155.0092" id="linearGradient3" spreadMethod="reflect">
        <stop stop-opacity="1" stop-color="rgb(204,255,204)" offset="0%"/>
        <stop stop-opacity="1" stop-color="rgb(51,153,102)" offset="100%"/>
      </linearGradient>
      <linearGradient x1="-944.722" gradientUnits="userSpaceOnUse" x2="-844.004" y1="-1308.5514" y2="-1268.5514" id="linearGradient4" spreadMethod="reflect">
        <stop stop-opacity="1" stop-color="rgb(204,255,204)" offset="0%"/>
        <stop stop-opacity="1" stop-color="rgb(51,153,102)" offset="100%"/>
      </linearGradient>
      <clipPath clipPathUnits="userSpaceOnUse" id="clipPath1">
        <path d="M0 0 L1106 0 L1106 773 L0 773 L0 0 Z"/>
      </clipPath>
      <clipPath clipPathUnits="userSpaceOnUse" id="clipPath2">
        <path d="M-1391 -1540 L-744.1597 -1540 L-744.1597 -1087.9136 L-1391 -1087.9136 L-1391 -1540 Z"/>
      </clipPath>
    </defs>
    <g fill="white" text-rendering="geometricPrecision" shape-rendering="geometricPrecision" transform="scale(1.7099,1.7099) translate(1391,1540)" stroke="white">
      <rect x="-1391" width="647" height="453" y="-1540" clip-path="url(#clipPath2)" stroke="none"/>
    </g>
    <g text-rendering="geometricPrecision" stroke-miterlimit="1.45" shape-rendering="geometricPrecision" font-family="sans-serif" transform="matrix(1.7099,0,0,1.7099,2378.4015,2633.1692)" stroke-linecap="butt">
      <text x="-1334.4963" xml:space="preserve" y="-1513.8121" clip-path="url(#clipPath2)" stroke="none">Cell</text>
      <rect fill="none" x="-1342.3724" width="531.7129" height="400.8689" y="-1510.0762" clip-path="url(#clipPath2)"/>
    </g>
    <g fill="url(#linearGradient1)" text-rendering="geometricPrecision" shape-rendering="geometricPrecision" transform="matrix(1.7099,0,0,1.7099,2378.4015,2633.1692)" stroke="url(#linearGradient1)">
      <path d="M-1224.1929 -1433.8245 L-1083.1577 -1433.8245 L-1083.1577 -1393.8245 L-1224.1929 -1393.8245 Z" clip-path="url(#clipPath2)" stroke="none"/>
    </g>
    <g text-rendering="geometricPrecision" stroke-miterlimit="1.45" shape-rendering="geometricPrecision" transform="matrix(1.7099,0,0,1.7099,2378.4015,2633.1692)" stroke-linecap="butt">
      <path fill="none" d="M-1224.1929 -1433.8245 L-1083.1577 -1433.8245 L-1083.1577 -1393.8245 L-1224.1929 -1393.8245 Z" clip-path="url(#clipPath2)"/>
      <text x="-1185.562" xml:space="preserve" y="-1416.6545" font-family="sans-serif" clip-path="url(#clipPath2)" stroke="none">Cytoplasm</text>
      <text x="-1196.7769" xml:space="preserve" y="-1402.6858" font-family="sans-serif" clip-path="url(#clipPath2)" stroke="none">(bulk solution)</text>
    </g>
    <g fill="url(#linearGradient2)" text-rendering="geometricPrecision" shape-rendering="geometricPrecision" transform="matrix(1.7099,0,0,1.7099,2378.4015,2633.1692)" stroke="url(#linearGradient2)">
      <path d="M-1224.1929 -1308.5514 L-1083.1577 -1308.5514 L-1083.1577 -1268.5514 L-1224.1929 -1268.5514 Z" clip-path="url(#clipPath2)" stroke="none"/>
    </g>
    <g text-rendering="geometricPrecision" stroke-miterlimit="1.45" shape-rendering="geometricPrecision" transform="matrix(1.7099,0,0,1.7099,2378.4015,2633.1692)" stroke-linecap="butt">
      <path fill="none" d="M-1224.1929 -1308.5514 L-1083.1577 -1308.5514 L-1083.1577 -1268.5514 L-1224.1929 -1268.5514 Z" clip-path="url(#clipPath2)"/>
      <text x="-1183.2417" xml:space="preserve" y="-1284.3971" font-family="sans-serif" clip-path="url(#clipPath2)" stroke="none">Periplasm</text>
    </g>
    <g fill="url(#linearGradient3)" text-rendering="geometricPrecision" shape-rendering="geometricPrecision" transform="matrix(1.7099,0,0,1.7099,2378.4015,2633.1692)" stroke="url(#linearGradient3)">
      <path d="M-1224.1929 -1195.0092 L-1083.1577 -1195.0092 L-1083.1577 -1155.0092 L-1224.1929 -1155.0092 Z" clip-path="url(#clipPath2)" stroke="none"/>
    </g>
    <g text-rendering="geometricPrecision" stroke-miterlimit="1.45" shape-rendering="geometricPrecision" transform="matrix(1.7099,0,0,1.7099,2378.4015,2633.1692)" stroke-linecap="butt">
      <path fill="none" d="M-1224.1929 -1195.0092 L-1083.1577 -1195.0092 L-1083.1577 -1155.0092 L-1224.1929 -1155.0092 Z" clip-path="url(#clipPath2)"/>
      <text x="-1193.3579" xml:space="preserve" y="-1177.8392" font-family="sans-serif" clip-path="url(#clipPath2)" stroke="none">Extra cellular</text>
      <text x="-1196.7769" xml:space="preserve" y="-1163.8705" font-family="sans-serif" clip-path="url(#clipPath2)" stroke="none">(bulk solution)</text>
    </g>
    <g fill="url(#linearGradient4)" text-rendering="geometricPrecision" shape-rendering="geometricPrecision" transform="matrix(1.7099,0,0,1.7099,2378.4015,2633.1692)" stroke="url(#linearGradient4)">
      <path d="M-944.722 -1308.5514 L-844.004 -1308.5514 L-844.004 -1268.5514 L-944.722 -1268.5514 Z" clip-path="url(#clipPath2)" stroke="none"/>
    </g>
    <g text-rendering="geometricPrecision" stroke-miterlimit="1.45" shape-rendering="geometricPrecision" transform="matrix(1.7099,0,0,1.7099,2378.4015,2633.1692)" stroke-linecap="butt">
      <path fill="none" d="M-944.722 -1308.5514 L-844.004 -1308.5514 L-844.004 -1268.5514 L-944.722 -1268.5514 Z" clip-path="url(#clipPath2)"/>
      <text x="-919.5906" xml:space="preserve" y="-1284.3971" font-family="sans-serif" clip-path="url(#clipPath2)" stroke="none">Biomass</text>
    </g>
    <g text-rendering="geometricPrecision" stroke-miterlimit="1.45" shape-rendering="geometricPrecision" transform="matrix(1.7099,0,0,1.7099,2378.4015,2633.1692)" stroke-linecap="butt">
      <path fill="none" d="M-1153.6753 -1393.8529 L-1153.6753 -1316.5269" clip-path="url(#clipPath2)"/>
      <path d="M-1153.6753 -1308.5269 L-1148.6753 -1320.5269 L-1153.6753 -1317.5269 L-1158.6753 -1320.5269 Z" clip-path="url(#clipPath2)" stroke="none"/>
      <path fill="none" d="M-1153.6753 -1308.5229 L-1153.6753 -1385.849" clip-path="url(#clipPath2)"/>
      <path d="M-1153.6753 -1393.849 L-1158.6753 -1381.849 L-1153.6753 -1384.849 L-1148.6753 -1381.849 Z" clip-path="url(#clipPath2)" stroke="none"/>
      <path fill="none" d="M-1153.6753 -1268.5275 L-1153.6753 -1203.0292" clip-path="url(#clipPath2)"/>
      <path d="M-1153.6753 -1195.0292 L-1148.6753 -1207.0292 L-1153.6753 -1204.0292 L-1158.6753 -1207.0292 Z" clip-path="url(#clipPath2)" stroke="none"/>
      <path fill="none" d="M-1153.6753 -1194.9955 L-1153.6753 -1260.5885" clip-path="url(#clipPath2)"/>
      <path d="M-1153.6753 -1268.5885 L-1158.6753 -1256.5885 L-1153.6753 -1259.5885 L-1148.6753 -1256.5885 Z" clip-path="url(#clipPath2)" stroke="none"/>
      <path fill="none" d="M-1083.1812 -1288.5514 L-952.7484 -1288.5514" clip-path="url(#clipPath2)"/>
      <path d="M-944.7484 -1288.5514 L-956.7484 -1293.5514 L-953.7484 -1288.5514 L-956.7484 -1283.5514 Z" clip-path="url(#clipPath2)" stroke="none"/>
      <path fill="none" d="M-1083.1594 -1413.8245 L-1013.9399 -1413.8245 L-1013.9399 -1288.5514 L-952.722 -1288.5514" clip-path="url(#clipPath2)"/>
      <path d="M-944.722 -1288.5514 L-956.722 -1293.5514 L-953.722 -1288.5514 L-956.722 -1283.5514 Z" clip-path="url(#clipPath2)" stroke="none"/>
      <path fill="none" d="M-1083.1594 -1175.0092 L-1013.9399 -1175.0092 L-1013.9399 -1288.5514 L-952.722 -1288.5514" clip-path="url(#clipPath2)"/>
      <path d="M-944.722 -1288.5514 L-956.722 -1293.5514 L-953.722 -1288.5514 L-956.722 -1283.5514 Z" clip-path="url(#clipPath2)" stroke="none"/>
      <path fill="none" d="M-894.363 -1308.5851 L-894.363 -1480.7241 L-1289.7604 -1480.7241 L-1289.7604 -1288.5514 L-1232.1538 -1288.5514" clip-path="url(#clipPath2)"/>
      <path d="M-1224.1538 -1288.5514 L-1236.1538 -1293.5514 L-1233.1538 -1288.5514 L-1236.1538 -1283.5514 Z" clip-path="url(#clipPath2)" stroke="none"/>
      <path fill="none" d="M-894.363 -1308.5851 L-894.363 -1480.7241 L-1289.7604 -1480.7241 L-1289.7604 -1175.0092 L-1232.2097 -1175.0092" clip-path="url(#clipPath2)"/>
      <path d="M-1224.2097 -1175.0092 L-1236.2097 -1180.0092 L-1233.2097 -1175.0092 L-1236.2097 -1170.0092 Z" clip-path="url(#clipPath2)" stroke="none"/>
      <path fill="none" d="M-894.363 -1308.5851 L-894.363 -1480.7241 L-1289.7604 -1480.7241 L-1289.7604 -1413.8245 L-1232.2097 -1413.8245" clip-path="url(#clipPath2)"/>
      <path d="M-1224.2097 -1413.8245 L-1236.2097 -1418.8245 L-1233.2097 -1413.8245 L-1236.2097 -1408.8245 Z" clip-path="url(#clipPath2)" stroke="none"/>
    </g>
  </g>
</svg>
