<?xml version="1.0" encoding="UTF-8"?><svg xmlns="http://www.w3.org/2000/svg" xmlns:xlink="http://www.w3.org/1999/xlink" fill-opacity="1" color-rendering="auto" color-interpolation="auto" stroke="black" text-rendering="auto" stroke-linecap="square" width="1106" stroke-miterlimit="10" stroke-opacity="1" shape-rendering="auto" fill="black" stroke-dasharray="none" font-weight="normal" stroke-width="1" height="773" font-family="'Dialog'" font-style="normal" stroke-linejoin="miter" font-size="12" stroke-dashoffset="0" image-rendering="auto">
  <!--Generated by ySVG 2.5-->
  <defs id="genericDefs"/>
  <g>
    <defs id="defs1">
      <linearGradient x1="-2178.918" gradientUnits="userSpaceOnUse" x2="-2037.8827" y1="-970.0121" y2="-930.0121" id="linearGradient1" spreadMethod="reflect">
        <stop stop-opacity="1" stop-color="rgb(204,255,204)" offset="0%"/>
        <stop stop-opacity="1" stop-color="rgb(51,153,102)" offset="100%"/>
      </linearGradient>
      <linearGradient x1="-1959.5798" gradientUnits="userSpaceOnUse" x2="-1818.5447" y1="-970.0121" y2="-930.0121" id="linearGradient2" spreadMethod="reflect">
        <stop stop-opacity="1" stop-color="rgb(204,255,204)" offset="0%"/>
        <stop stop-opacity="1" stop-color="rgb(51,153,102)" offset="100%"/>
      </linearGradient>
      <linearGradient x1="-1755.5013" gradientUnits="userSpaceOnUse" x2="-1602.999" y1="-970.0121" y2="-930.0121" id="linearGradient3" spreadMethod="reflect">
        <stop stop-opacity="1" stop-color="rgb(204,255,204)" offset="0%"/>
        <stop stop-opacity="1" stop-color="rgb(51,153,102)" offset="100%"/>
      </linearGradient>
      <linearGradient x1="-2408.1226" gradientUnits="userSpaceOnUse" x2="-2285.4963" y1="-970.0121" y2="-930.0121" id="linearGradient4" spreadMethod="reflect">
        <stop stop-opacity="1" stop-color="rgb(232,238,247)" offset="0%"/>
        <stop stop-opacity="1" stop-color="rgb(183,201,227)" offset="100%"/>
      </linearGradient>
      <linearGradient x1="-2178.918" gradientUnits="userSpaceOnUse" x2="-2037.8827" y1="-900.0121" y2="-860.0121" id="linearGradient5" spreadMethod="reflect">
        <stop stop-opacity="1" stop-color="rgb(204,255,204)" offset="0%"/>
        <stop stop-opacity="1" stop-color="rgb(51,153,102)" offset="100%"/>
      </linearGradient>
      <linearGradient x1="-2178.918" gradientUnits="userSpaceOnUse" x2="-2037.8827" y1="-1040.0121" y2="-1000.0121" id="linearGradient6" spreadMethod="reflect">
        <stop stop-opacity="1" stop-color="rgb(204,255,204)" offset="0%"/>
        <stop stop-opacity="1" stop-color="rgb(51,153,102)" offset="100%"/>
      </linearGradient>
      <clipPath clipPathUnits="userSpaceOnUse" id="clipPath1">
        <path d="M0 0 L1106 0 L1106 773 L0 773 L0 0 Z"/>
      </clipPath>
      <clipPath clipPathUnits="userSpaceOnUse" id="clipPath2">
        <path d="M-2478 -1351 L-1487.3854 -1351 L-1487.3854 -658.6446 L-2478 -658.6446 L-2478 -1351 Z"/>
      </clipPath>
    </defs>
    <g fill="white" text-rendering="geometricPrecision" shape-rendering="geometricPrecision" transform="scale(1.1165,1.1165) translate(2478,1351)" stroke="white">
      <rect x="-2478" width="991" height="693" y="-1351" clip-path="url(#clipPath2)" stroke="none"/>
    </g>
    <g text-rendering="geometricPrecision" stroke-miterlimit="1.45" shape-rendering="geometricPrecision" font-family="sans-serif" transform="matrix(1.1165,0,0,1.1165,2766.6341,1508.3626)" stroke-linecap="butt">
      <text x="-2426.168" xml:space="preserve" y="-1080.746" clip-path="url(#clipPath2)" stroke="none">periplasm</text>
      <rect fill="none" x="-2438.3157" width="918.2503" height="234.3377" y="-1077.01" clip-path="url(#clipPath2)"/>
    </g>
    <g fill="url(#linearGradient1)" text-rendering="geometricPrecision" shape-rendering="geometricPrecision" transform="matrix(1.1165,0,0,1.1165,2766.6341,1508.3626)" stroke="url(#linearGradient1)">
      <path d="M-2178.918 -970.0121 L-2037.8827 -970.0121 L-2037.8827 -930.0121 L-2178.918 -930.0121 Z" clip-path="url(#clipPath2)" stroke="none"/>
    </g>
    <g text-rendering="geometricPrecision" stroke-miterlimit="1.45" shape-rendering="geometricPrecision" transform="matrix(1.1165,0,0,1.1165,2766.6341,1508.3626)" stroke-linecap="butt">
      <path fill="none" d="M-2178.918 -970.0121 L-2037.8827 -970.0121 L-2037.8827 -930.0121 L-2178.918 -930.0121 Z" clip-path="url(#clipPath2)"/>
      <text x="-2159.5029" xml:space="preserve" y="-952.8422" font-family="sans-serif" clip-path="url(#clipPath2)" stroke="none">Outer Membrane</text>
      <text x="-2147.8896" xml:space="preserve" y="-938.8734" font-family="sans-serif" clip-path="url(#clipPath2)" stroke="none">(enzyme set)</text>
    </g>
    <g fill="url(#linearGradient2)" text-rendering="geometricPrecision" shape-rendering="geometricPrecision" transform="matrix(1.1165,0,0,1.1165,2766.6341,1508.3626)" stroke="url(#linearGradient2)">
      <path d="M-1959.5798 -970.0121 L-1818.5447 -970.0121 L-1818.5447 -930.0121 L-1959.5798 -930.0121 Z" clip-path="url(#clipPath2)" stroke="none"/>
    </g>
    <g text-rendering="geometricPrecision" stroke-miterlimit="1.45" shape-rendering="geometricPrecision" transform="matrix(1.1165,0,0,1.1165,2766.6341,1508.3626)" stroke-linecap="butt">
      <path fill="none" d="M-1959.5798 -970.0121 L-1818.5447 -970.0121 L-1818.5447 -930.0121 L-1959.5798 -930.0121 Z" clip-path="url(#clipPath2)"/>
      <text x="-1938.8201" xml:space="preserve" y="-952.8422" font-family="sans-serif" clip-path="url(#clipPath2)" stroke="none">Periplasm Space</text>
      <text x="-1934.5544" xml:space="preserve" y="-938.8734" font-family="sans-serif" clip-path="url(#clipPath2)" stroke="none">(compartment)</text>
    </g>
    <g fill="url(#linearGradient3)" text-rendering="geometricPrecision" shape-rendering="geometricPrecision" transform="matrix(1.1165,0,0,1.1165,2766.6341,1508.3626)" stroke="url(#linearGradient3)">
      <path d="M-1755.5013 -970.0121 L-1602.999 -970.0121 L-1602.999 -930.0121 L-1755.5013 -930.0121 Z" clip-path="url(#clipPath2)" stroke="none"/>
    </g>
    <g text-rendering="geometricPrecision" stroke-miterlimit="1.45" shape-rendering="geometricPrecision" transform="matrix(1.1165,0,0,1.1165,2766.6341,1508.3626)" stroke-linecap="butt">
      <path fill="none" d="M-1755.5013 -970.0121 L-1602.999 -970.0121 L-1602.999 -930.0121 L-1755.5013 -930.0121 Z" clip-path="url(#clipPath2)"/>
      <text x="-1726.2571" xml:space="preserve" y="-952.8422" font-family="sans-serif" clip-path="url(#clipPath2)" stroke="none">Periplasm Inner</text>
      <text x="-1718.7395" xml:space="preserve" y="-938.8734" font-family="sans-serif" clip-path="url(#clipPath2)" stroke="none">(enzyme set)</text>
    </g>
    <g fill="url(#linearGradient4)" text-rendering="geometricPrecision" shape-rendering="geometricPrecision" transform="matrix(1.1165,0,0,1.1165,2766.6341,1508.3626)" stroke="url(#linearGradient4)">
      <path d="M-2408.1226 -970.0121 L-2285.4963 -970.0121 L-2285.4963 -930.0121 L-2408.1226 -930.0121 Z" clip-path="url(#clipPath2)" stroke="none"/>
    </g>
    <g text-rendering="geometricPrecision" stroke-miterlimit="1.45" shape-rendering="geometricPrecision" transform="matrix(1.1165,0,0,1.1165,2766.6341,1508.3626)" stroke-linecap="butt">
      <path fill="none" d="M-2408.1226 -970.0121 L-2285.4963 -970.0121 L-2285.4963 -930.0121 L-2408.1226 -930.0121 Z" clip-path="url(#clipPath2)"/>
      <text x="-2393.207" xml:space="preserve" y="-952.8422" font-family="sans-serif" clip-path="url(#clipPath2)" stroke="none">Organelle Filter</text>
      <text x="-2365.4482" xml:space="preserve" y="-938.8734" font-family="sans-serif" clip-path="url(#clipPath2)" stroke="none">(filter)</text>
    </g>
    <g fill="url(#linearGradient5)" text-rendering="geometricPrecision" shape-rendering="geometricPrecision" transform="matrix(1.1165,0,0,1.1165,2766.6341,1508.3626)" stroke="url(#linearGradient5)">
      <path d="M-2178.918 -900.0121 L-2037.8827 -900.0121 L-2037.8827 -860.0121 L-2178.918 -860.0121 Z" clip-path="url(#clipPath2)" stroke="none"/>
    </g>
    <g text-rendering="geometricPrecision" stroke-miterlimit="1.45" shape-rendering="geometricPrecision" transform="matrix(1.1165,0,0,1.1165,2766.6341,1508.3626)" stroke-linecap="butt">
      <path fill="none" d="M-2178.918 -900.0121 L-2037.8827 -900.0121 L-2037.8827 -860.0121 L-2178.918 -860.0121 Z" clip-path="url(#clipPath2)"/>
      <text x="-2158" xml:space="preserve" y="-882.8422" font-family="sans-serif" clip-path="url(#clipPath2)" stroke="none">Inner Membrane</text>
      <text x="-2147.8896" xml:space="preserve" y="-868.8734" font-family="sans-serif" clip-path="url(#clipPath2)" stroke="none">(enzyme set)</text>
    </g>
    <g fill="url(#linearGradient6)" text-rendering="geometricPrecision" shape-rendering="geometricPrecision" transform="matrix(1.1165,0,0,1.1165,2766.6341,1508.3626)" stroke="url(#linearGradient6)">
      <path d="M-2178.918 -1040.0121 L-2037.8827 -1040.0121 L-2037.8827 -1000.0121 L-2178.918 -1000.0121 Z" clip-path="url(#clipPath2)" stroke="none"/>
    </g>
    <g text-rendering="geometricPrecision" stroke-miterlimit="1.45" shape-rendering="geometricPrecision" transform="matrix(1.1165,0,0,1.1165,2766.6341,1508.3626)" stroke-linecap="butt">
      <path fill="none" d="M-2178.918 -1040.0121 L-2037.8827 -1040.0121 L-2037.8827 -1000.0121 L-2178.918 -1000.0121 Z" clip-path="url(#clipPath2)"/>
      <text x="-2157.8916" xml:space="preserve" y="-1022.8422" font-family="sans-serif" clip-path="url(#clipPath2)" stroke="none">trans Membrane</text>
      <text x="-2147.8896" xml:space="preserve" y="-1008.8734" font-family="sans-serif" clip-path="url(#clipPath2)" stroke="none">(enzyme set)</text>
    </g>
    <g text-rendering="geometricPrecision" stroke-miterlimit="1.45" shape-rendering="geometricPrecision" transform="matrix(1.1165,0,0,1.1165,2766.6341,1508.3626)" stroke-linecap="butt">
      <path fill="none" d="M-2037.8772 -950.0121 L-1967.5718 -950.0121" clip-path="url(#clipPath2)"/>
      <path d="M-1959.5718 -950.0121 L-1971.5718 -955.0121 L-1968.5718 -950.0121 L-1971.5718 -945.0121 Z" clip-path="url(#clipPath2)" stroke="none"/>
      <path fill="none" d="M-1889.0623 -970.0194 L-1889.0623 -1060.0121 L-2248.814 -1060.0121 L-2248.814 -960.6011 L-2237.2207 -950.0121 L-2186.9175 -950.0121" clip-path="url(#clipPath2)"/>
      <path d="M-2178.9175 -950.0121 L-2190.9175 -955.0121 L-2187.9175 -950.0121 L-2190.9175 -945.0121 Z" clip-path="url(#clipPath2)" stroke="none"/>
      <path fill="none" d="M-1818.5529 -950.0121 L-1763.5333 -950.0121" clip-path="url(#clipPath2)"/>
      <path d="M-1755.5333 -950.0121 L-1767.5333 -955.0121 L-1764.5333 -950.0121 L-1767.5333 -945.0121 Z" clip-path="url(#clipPath2)" stroke="none"/>
      <path fill="none" d="M-1602.973 -950.0121 L-1582.999 -950.0121 L-1582.999 -910.0121 L-1889.0623 -910.0121 L-1889.0623 -922.0511" clip-path="url(#clipPath2)"/>
      <path d="M-1889.0623 -930.0511 L-1894.0623 -918.0511 L-1889.0623 -921.0511 L-1884.0623 -918.0511 Z" clip-path="url(#clipPath2)" stroke="none"/>
      <path fill="none" d="M-2438.3215 -950.0121 L-2416.1602 -950.0121" clip-path="url(#clipPath2)"/>
      <path d="M-2408.1602 -950.0121 L-2420.1602 -955.0121 L-2417.1602 -950.0121 L-2420.1602 -945.0121 Z" clip-path="url(#clipPath2)" stroke="none"/>
      <path fill="none" d="M-2285.4832 -950.0121 L-2186.9148 -950.0121" clip-path="url(#clipPath2)"/>
      <path d="M-2178.9148 -950.0121 L-2190.9148 -955.0121 L-2187.9148 -950.0121 L-2190.9148 -945.0121 Z" clip-path="url(#clipPath2)" stroke="none"/>
      <path fill="none" d="M-2285.5137 -950.0121 L-2237.2207 -950.0121 L-2237.2207 -880.0121 L-2186.9434 -880.0121" clip-path="url(#clipPath2)"/>
      <path d="M-2178.9434 -880.0121 L-2190.9434 -885.0121 L-2187.9434 -880.0121 L-2190.9434 -875.0121 Z" clip-path="url(#clipPath2)" stroke="none"/>
      <path fill="none" d="M-2037.8953 -880.0121 L-2000.1993 -880.0121 L-2000.1993 -950.0121 L-1967.5811 -950.0121" clip-path="url(#clipPath2)"/>
      <path d="M-1959.5811 -950.0121 L-1971.5811 -955.0121 L-1968.5811 -950.0121 L-1971.5811 -945.0121 Z" clip-path="url(#clipPath2)" stroke="none"/>
      <path fill="none" d="M-2037.8617 -880.0121 L-1562.999 -880.0121 L-1562.999 -959.8411 L-1528.0944 -959.8411" clip-path="url(#clipPath2)"/>
      <path d="M-1520.0944 -959.8411 L-1532.0944 -964.8411 L-1529.0944 -959.8411 L-1532.0944 -954.8411 Z" clip-path="url(#clipPath2)" stroke="none"/>
      <path fill="none" d="M-2285.5137 -950.0121 L-2237.2207 -950.0121 L-2237.2207 -1020.0121 L-2186.9434 -1020.0121" clip-path="url(#clipPath2)"/>
      <path d="M-2178.9434 -1020.0121 L-2190.9434 -1025.0121 L-2187.9434 -1020.0121 L-2190.9434 -1015.0121 Z" clip-path="url(#clipPath2)" stroke="none"/>
      <path fill="none" d="M-2037.8953 -1020.0121 L-2000.1993 -1020.0121 L-2000.1993 -950.0121 L-1967.5811 -950.0121" clip-path="url(#clipPath2)"/>
      <path d="M-1959.5811 -950.0121 L-1971.5811 -955.0121 L-1968.5811 -950.0121 L-1971.5811 -945.0121 Z" clip-path="url(#clipPath2)" stroke="none"/>
    </g>
  </g>
</svg>
