<?xml version="1.0" encoding="UTF-8"?><svg xmlns="http://www.w3.org/2000/svg" xmlns:xlink="http://www.w3.org/1999/xlink" fill-opacity="1" color-rendering="auto" color-interpolation="auto" stroke="black" text-rendering="auto" stroke-linecap="square" width="1106" stroke-miterlimit="10" stroke-opacity="1" shape-rendering="auto" fill="black" stroke-dasharray="none" font-weight="normal" stroke-width="1" height="773" font-family="'Dialog'" font-style="normal" stroke-linejoin="miter" font-size="12" stroke-dashoffset="0" image-rendering="auto">
  <!--Generated by ySVG 2.5-->
  <defs id="genericDefs"/>
  <g>
    <defs id="defs1">
      <linearGradient x1="562.9558" gradientUnits="userSpaceOnUse" x2="688.8275" y1="-1423.3057" y2="-1383.3057" id="linearGradient1" spreadMethod="reflect">
        <stop stop-opacity="1" stop-color="rgb(232,238,247)" offset="0%"/>
        <stop stop-opacity="1" stop-color="rgb(183,201,227)" offset="100%"/>
      </linearGradient>
      <linearGradient x1="778.9153" gradientUnits="userSpaceOnUse" x2="919.9504" y1="-1486.2407" y2="-1446.2407" id="linearGradient2" spreadMethod="reflect">
        <stop stop-opacity="1" stop-color="rgb(204,255,204)" offset="0%"/>
        <stop stop-opacity="1" stop-color="rgb(51,153,102)" offset="100%"/>
      </linearGradient>
      <linearGradient x1="778.9153" gradientUnits="userSpaceOnUse" x2="919.9504" y1="-1365.7017" y2="-1325.7017" id="linearGradient3" spreadMethod="reflect">
        <stop stop-opacity="1" stop-color="rgb(204,255,204)" offset="0%"/>
        <stop stop-opacity="1" stop-color="rgb(51,153,102)" offset="100%"/>
      </linearGradient>
      <clipPath clipPathUnits="userSpaceOnUse" id="clipPath1">
        <path d="M0 0 L1106 0 L1106 773 L0 773 L0 0 Z"/>
      </clipPath>
      <clipPath clipPathUnits="userSpaceOnUse" id="clipPath2">
        <path d="M449 -1639 L1082.9933 -1639 L1082.9933 -1195.8926 L449 -1195.8926 L449 -1639 Z"/>
      </clipPath>
    </defs>
    <g fill="white" text-rendering="geometricPrecision" shape-rendering="geometricPrecision" transform="scale(1.7445,1.7445) translate(-449,1639)" stroke="white">
      <rect x="449" width="634" height="444" y="-1639" clip-path="url(#clipPath2)" stroke="none"/>
    </g>
    <g text-rendering="geometricPrecision" stroke-miterlimit="1.45" shape-rendering="geometricPrecision" font-family="sans-serif" transform="matrix(1.7445,0,0,1.7445,-783.2795,2859.232)" stroke-linecap="butt">
      <text x="526.9258" xml:space="preserve" y="-1521.0111" clip-path="url(#clipPath2)" stroke="none">reaction set</text>
      <rect fill="none" x="519.6872" width="474.0379" height="227.9388" y="-1517.2751" clip-path="url(#clipPath2)"/>
    </g>
    <g fill="url(#linearGradient1)" text-rendering="geometricPrecision" shape-rendering="geometricPrecision" transform="matrix(1.7445,0,0,1.7445,-783.2795,2859.232)" stroke="url(#linearGradient1)">
      <path d="M562.9558 -1423.3057 L688.8275 -1423.3057 L688.8275 -1383.3057 L562.9558 -1383.3057 Z" clip-path="url(#clipPath2)" stroke="none"/>
    </g>
    <g text-rendering="geometricPrecision" stroke-miterlimit="1.45" shape-rendering="geometricPrecision" transform="matrix(1.7445,0,0,1.7445,-783.2795,2859.232)" stroke-linecap="butt">
      <path fill="none" d="M562.9558 -1423.3057 L688.8275 -1423.3057 L688.8275 -1383.3057 L562.9558 -1383.3057 Z" clip-path="url(#clipPath2)"/>
      <text x="573.7813" xml:space="preserve" y="-1406.1357" font-family="sans-serif" clip-path="url(#clipPath2)" stroke="none">Enzyme set Filter</text>
      <text x="607.253" xml:space="preserve" y="-1392.167" font-family="sans-serif" clip-path="url(#clipPath2)" stroke="none">(filter)</text>
    </g>
    <g fill="url(#linearGradient2)" text-rendering="geometricPrecision" shape-rendering="geometricPrecision" transform="matrix(1.7445,0,0,1.7445,-783.2795,2859.232)" stroke="url(#linearGradient2)">
      <path d="M778.9153 -1486.2407 L919.9504 -1486.2407 L919.9504 -1446.2407 L778.9153 -1446.2407 Z" clip-path="url(#clipPath2)" stroke="none"/>
    </g>
    <g text-rendering="geometricPrecision" stroke-miterlimit="1.45" shape-rendering="geometricPrecision" transform="matrix(1.7445,0,0,1.7445,-783.2795,2859.232)" stroke-linecap="butt">
      <path fill="none" d="M778.9153 -1486.2407 L919.9504 -1486.2407 L919.9504 -1446.2407 L778.9153 -1446.2407 Z" clip-path="url(#clipPath2)"/>
      <text x="819.8782" xml:space="preserve" y="-1469.0708" font-family="sans-serif" clip-path="url(#clipPath2)" stroke="none">Enzyme 1</text>
      <text x="805.2502" xml:space="preserve" y="-1455.1021" font-family="sans-serif" clip-path="url(#clipPath2)" stroke="none">(atm_reaction)</text>
      <text x="846.2542" font-size="20" y="-1426.4497" clip-path="url(#clipPath2)" font-family="sans-serif" stroke="none" xml:space="preserve">.</text>
      <text x="846.2542" font-size="20" y="-1403.1685" clip-path="url(#clipPath2)" font-family="sans-serif" stroke="none" xml:space="preserve">.</text>
      <text x="846.2542" font-size="20" y="-1379.8872" clip-path="url(#clipPath2)" font-family="sans-serif" stroke="none" xml:space="preserve">.</text>
    </g>
    <g fill="url(#linearGradient3)" text-rendering="geometricPrecision" shape-rendering="geometricPrecision" transform="matrix(1.7445,0,0,1.7445,-783.2795,2859.232)" stroke="url(#linearGradient3)">
      <path d="M778.9153 -1365.7017 L919.9504 -1365.7017 L919.9504 -1325.7017 L778.9153 -1325.7017 Z" clip-path="url(#clipPath2)" stroke="none"/>
    </g>
    <g text-rendering="geometricPrecision" stroke-miterlimit="1.45" shape-rendering="geometricPrecision" transform="matrix(1.7445,0,0,1.7445,-783.2795,2859.232)" stroke-linecap="butt">
      <path fill="none" d="M778.9153 -1365.7017 L919.9504 -1365.7017 L919.9504 -1325.7017 L778.9153 -1325.7017 Z" clip-path="url(#clipPath2)"/>
      <text x="817.8508" xml:space="preserve" y="-1348.5317" font-family="sans-serif" clip-path="url(#clipPath2)" stroke="none">Enzyme m</text>
      <text x="805.2502" xml:space="preserve" y="-1334.563" font-family="sans-serif" clip-path="url(#clipPath2)" stroke="none">(atm_reaction)</text>
    </g>
    <g text-rendering="geometricPrecision" stroke-miterlimit="1.45" shape-rendering="geometricPrecision" transform="matrix(1.7445,0,0,1.7445,-783.2795,2859.232)" stroke-linecap="butt">
      <path fill="none" d="M688.8223 -1403.3057 L727.4534 -1403.3057 L727.4534 -1466.2407 L770.9432 -1466.2407" clip-path="url(#clipPath2)"/>
      <path d="M778.9432 -1466.2407 L766.9432 -1471.2407 L769.9432 -1466.2407 L766.9432 -1461.2407 Z" clip-path="url(#clipPath2)" stroke="none"/>
      <path fill="none" d="M688.8223 -1403.3057 L727.4534 -1403.3057 L727.4534 -1345.7017 L770.9432 -1345.7017" clip-path="url(#clipPath2)"/>
      <path d="M778.9432 -1345.7017 L766.9432 -1350.7017 L769.9432 -1345.7017 L766.9432 -1340.7017 Z" clip-path="url(#clipPath2)" stroke="none"/>
      <path fill="none" d="M520.6775 -1403.3057 L554.9327 -1403.3057" clip-path="url(#clipPath2)"/>
      <path d="M562.9327 -1403.3057 L550.9327 -1408.3057 L553.9327 -1403.3057 L550.9327 -1398.3057 Z" clip-path="url(#clipPath2)" stroke="none"/>
      <path fill="none" d="M919.972 -1466.2407 L953.0285 -1466.2407 L953.0285 -1403.3057 L985.7021 -1403.3057" clip-path="url(#clipPath2)"/>
      <path d="M993.7021 -1403.3057 L981.7021 -1408.3057 L984.7021 -1403.3057 L981.7021 -1398.3057 Z" clip-path="url(#clipPath2)" stroke="none"/>
      <path fill="none" d="M919.972 -1345.7017 L953.0285 -1345.7017 L953.0285 -1403.3057 L985.7021 -1403.3057" clip-path="url(#clipPath2)"/>
      <path d="M993.7021 -1403.3057 L981.7021 -1408.3057 L984.7021 -1403.3057 L981.7021 -1398.3057 Z" clip-path="url(#clipPath2)" stroke="none"/>
    </g>
  </g>
</svg>
